<?xml version="1.0" encoding="utf-8"?>
<!-- Generator: Adobe Illustrator 25.2.3, SVG Export Plug-In . SVG Version: 6.00 Build 0)  -->
<svg version="1.1" xmlns="http://www.w3.org/2000/svg" xmlns:xlink="http://www.w3.org/1999/xlink" x="0px" y="0px"
	 viewBox="0 0 419.6 422" style="enable-background:new 0 0 419.6 422;" xml:space="preserve">
<style type="text/css">
	.st0{enable-background:new    ;}
	.st1{clip-path:url(#SVGID_2_);enable-background:new    ;}
	.st2{fill:#1254AB;}
	.st3{clip-path:url(#SVGID_4_);enable-background:new    ;}
	.st4{fill:#1874EC;}
	.st5{fill:#FFFFFF;}
</style>
<g id="Background">
</g>
<g id="Object">
	<g>
		<g>
			<g>
				<g class="st0">
					<g class="st0">
						<defs>
							<path id="SVGID_1_" class="st0" d="M347,382.2l-35.4,14.5c-0.5,0.2-1,0.3-1.5,0.3c-1.6,0-3.2-0.9-4.1-2.5
								c-6.4-11-23.5-15.4-30.8-17l35.4-14.5c7.3,1.6,24.4,6,30.8,17c1,1.6,2.6,2.5,4.1,2.5C346,382.5,346.6,382.4,347,382.2z"/>
						</defs>
						<clipPath id="SVGID_2_">
							<use xlink:href="#SVGID_1_"  style="overflow:visible;"/>
						</clipPath>
						<g class="st1">
							<path class="st2" d="M347,382.2l-35.4,14.5c-0.5,0.2-1,0.3-1.5,0.3c-1.6,0-3.2-0.9-4.1-2.5c-6.4-11-23.5-15.4-30.8-17
								l35.4-14.5c7.3,1.6,24.4,6,30.8,17c1,1.6,2.6,2.5,4.1,2.5C346,382.5,346.6,382.4,347,382.2"/>
						</g>
					</g>
					<g class="st0">
						<defs>
							<path id="SVGID_3_" class="st0" d="M295.9,370l-35.4,14.5c-18.4,7.6-38.6,11.7-59.8,11.7c-93.5,0-173.1-79.9-177.8-178.4
								C19.1,141.6,61,76.8,123.3,51.2l35.4-14.5C96.4,62.3,54.5,127.1,58.2,203.3c4.7,98.5,84.4,178.4,177.8,178.4
								C257.3,381.7,277.5,377.5,295.9,370z"/>
						</defs>
						<clipPath id="SVGID_4_">
							<use xlink:href="#SVGID_3_"  style="overflow:visible;"/>
						</clipPath>
						<g class="st3">
							<path class="st2" d="M295.9,370l-35.4,14.5c-18.4,7.6-38.6,11.7-59.8,11.7c-93.5,0-173.1-79.9-177.8-178.4
								C19.1,141.6,61,76.8,123.3,51.2l35.4-14.5C96.4,62.3,54.5,127.1,58.2,203.3c4.7,98.5,84.4,178.4,177.8,178.4
								C257.3,381.7,277.5,377.5,295.9,370"/>
						</g>
					</g>
					<g>
						<path class="st4" d="M218.9,24.9c93.5,0,173.1,79.9,177.8,178.4c2.6,53.9-17.8,102.3-52.1,135c3.6,4.2,6.3,9.3,7.8,14.7
							c2.5,9.3,1.1,19.4-3.4,27.4c-0.8,1.4-2.1,2.1-3.5,2.1c-1.6,0-3.2-0.9-4.1-2.5c-6.4-11-23.5-15.4-30.8-17
							c-22.1,11.9-47.4,18.7-74.5,18.7c-93.5,0-173.1-79.9-177.8-178.4C53.5,104.5,125.1,24.9,218.9,24.9z"/>
					</g>
				</g>
			</g>
			<g>
				<g>
					<path class="st5" d="M152.3,177c0-0.8,0-1.6,0-2.4c0.6,0,1.2,0,1.8,0c9.8,0.1,19.6-0.3,29.4,0.2c0.9,0,1.8,0,2.6-0.1
						c1.1-0.1,1.6-0.6,1.6-1.8c-0.2-2.9-0.3-5.9-0.5-8.8c-0.3-5.9-0.4-11.9-0.8-17.8c-0.1-1.9-0.1-3.8-0.3-5.7
						c-0.6-8.4-0.2-16.6,2.9-24.6c5.5-14.6,15.5-24.7,30.4-29.6c7.4-2.5,15.1-2.3,22.8-1.5c5.1,0.6,10.2,0.9,15.3,1.4
						c3.1,0.3,6.3,0.6,9.4,0.9c1,0.1,1.3,0.6,1.4,1.6c0.2,5,0.4,10,0.7,14.9c0.1,2.1,0.2,4.1,0.3,6.2c0.3,4.5,0.4,9.1,0.6,13.6
						c0.1,1.1-0.5,1.4-1.5,1.4c-5.5,0-11.1,0-16.6,0c-0.4,0-0.7,0-1.1-0.1c-1.7-0.3-3.4-0.1-5.1,0.3c-7.9,1.7-13.6,7.7-14.9,15.7
						c-0.8,4.5,0,9,0.1,13.5c0.1,5.7,0.6,11.5,0.9,17.2c0.1,3.2,0.2,3.3,3.5,3.3c11.3,0,22.7,0,34,0c1.8,0,1.9,0.2,1.7,2
						c-0.4,4.3-0.9,8.6-1.3,12.9c-0.9,8.9-1.7,17.7-2.6,26.6c-0.2,2-0.2,2-2.3,2c-9.5,0-18.9,0-28.4,0c-2.2,0-2.3,0.1-2.2,2.3
						c0.2,5.3,0.5,10.5,0.7,15.8c0.2,4.1,0.3,8.1,0.5,12.2c0.4,7.3,0.8,14.5,1.2,21.8c0.3,4.9,0.5,9.7,0.7,14.6
						c0.3,7.5,0.7,15.1,1,22.6c0.1,2.3,0.3,4.5,0.4,6.8c0.1,2.5,0.2,4.9,0.3,7.4c0,0.7-0.2,1.3-1.1,1.2c-1.6-0.1-3.2,0.2-4.8,0.2
						c-11.9,0-23.9,0-35.8,0c-1.6,0-1.9-0.2-1.9-1.8c-0.1-2.3-0.2-4.6-0.3-6.9c-0.2-3.9-0.3-7.7-0.5-11.6
						c-0.3-6.4-0.6-12.8-0.9-19.1c-0.2-3.7-0.3-7.4-0.5-11.1c-0.3-5.8-0.6-11.6-0.9-17.5c-0.2-4.1-0.3-8.2-0.5-12.3
						c-0.4-7.5-0.8-15-1.2-22.5c-0.1-2.2-0.2-2.4-2.4-2.4c-10.3,0-20.7,0-31,0c-0.5,0-1,0-1.4,0c-0.7,0-1.1-0.4-1.2-1.1
						c-0.1-0.7-0.1-1.4-0.1-2.2c-0.2-4-0.3-8.1-0.5-12.1c-0.3-6.4-0.6-12.8-1-19.2C152.6,181.3,152.7,179.2,152.3,177z"/>
				</g>
			</g>
		</g>
	</g>
</g>
</svg>
