<?xml version="1.0" encoding="utf-8"?>
<!-- Generator: Adobe Illustrator 25.2.3, SVG Export Plug-In . SVG Version: 6.00 Build 0)  -->
<svg version="1.1" xmlns="http://www.w3.org/2000/svg" xmlns:xlink="http://www.w3.org/1999/xlink" x="0px" y="0px"
	 viewBox="0 0 419.6 422" style="enable-background:new 0 0 419.6 422;" xml:space="preserve">
<style type="text/css">
	.st0{clip-path:url(#SVGID_3_);enable-background:new    ;}
	.st1{fill:url(#SVGID_4_);}
	.st2{fill:url(#SVGID_5_);}
	.st3{fill:url(#SVGID_6_);}
	.st4{fill:none;}
	.st5{fill:#FFFFFF;}
</style>
<g id="Background">
</g>
<g id="Object">
	<g>
		<g>
			<g>
				<defs>
					<path id="SVGID_1_" d="M348.3,381.7l-35.4,14.5c-6.5-0.6-6.7-0.9-7-1.3c-6.4-11-23.5-15.4-30.8-17l35.4-14.5
						c7.3,1.6,24.4,6,30.8,17C341.6,380.8,341.9,381.2,348.3,381.7z"/>
				</defs>
				<linearGradient id="SVGID_2_" gradientUnits="userSpaceOnUse" x1="275.1895" y1="379.8607" x2="348.3198" y2="379.8607">
					<stop  offset="0" style="stop-color:#FED000"/>
					<stop  offset="3.311848e-02" style="stop-color:#FCBD0E"/>
					<stop  offset="0.1499" style="stop-color:#F6803C"/>
					<stop  offset="0.249" style="stop-color:#F2545D"/>
					<stop  offset="0.3256" style="stop-color:#EF3871"/>
					<stop  offset="0.3702" style="stop-color:#EE2E79"/>
					<stop  offset="0.6346" style="stop-color:#A237A4"/>
					<stop  offset="0.9879" style="stop-color:#4142DB"/>
				</linearGradient>
				<use xlink:href="#SVGID_1_"  style="overflow:visible;fill:url(#SVGID_2_);"/>
				<clipPath id="SVGID_3_">
					<use xlink:href="#SVGID_1_"  style="overflow:visible;"/>
				</clipPath>
				<g class="st0">
					<linearGradient id="SVGID_4_" gradientUnits="userSpaceOnUse" x1="275.1895" y1="379.8607" x2="348.3198" y2="379.8607">
						<stop  offset="0" style="stop-color:#FED000"/>
						<stop  offset="3.311848e-02" style="stop-color:#FCBD0E"/>
						<stop  offset="0.1499" style="stop-color:#F6803C"/>
						<stop  offset="0.249" style="stop-color:#F2545D"/>
						<stop  offset="0.3256" style="stop-color:#EF3871"/>
						<stop  offset="0.3702" style="stop-color:#EE2E79"/>
						<stop  offset="0.6346" style="stop-color:#A237A4"/>
						<stop  offset="0.9879" style="stop-color:#4142DB"/>
					</linearGradient>
					<path class="st1" d="M348.3,381.7l-35.4,14.5c-6.5-0.6-6.7-0.9-7-1.3c-6.4-11-23.5-15.4-30.8-17l35.4-14.5
						c7.3,1.6,24.4,6,30.8,17C341.6,380.8,341.9,381.2,348.3,381.7"/>
				</g>
			</g>
			<linearGradient id="SVGID_5_" gradientUnits="userSpaceOnUse" x1="22.5845" y1="216.8549" x2="295.8975" y2="216.8549">
				<stop  offset="0" style="stop-color:#FED000"/>
				<stop  offset="3.311848e-02" style="stop-color:#FCBD0E"/>
				<stop  offset="0.1499" style="stop-color:#F6803C"/>
				<stop  offset="0.249" style="stop-color:#F2545D"/>
				<stop  offset="0.3256" style="stop-color:#EF3871"/>
				<stop  offset="0.3702" style="stop-color:#EE2E79"/>
				<stop  offset="0.6346" style="stop-color:#A237A4"/>
				<stop  offset="0.9879" style="stop-color:#4142DB"/>
			</linearGradient>
			<path class="st2" d="M295.9,370.4l-35.4,14.5c-18.4,7.6-38.6,11.7-59.8,11.7c-93.5,0-173.1-79.9-177.8-178.4
				C19.1,142,61,77.2,123.3,51.6l35.4-14.5C96.4,62.7,54.5,127.5,58.2,203.7c4.7,98.5,84.4,178.4,177.8,178.4
				C257.3,382.1,277.5,377.9,295.9,370.4z"/>
			<linearGradient id="SVGID_6_" gradientUnits="userSpaceOnUse" x1="-23.2061" y1="203.7088" x2="541.5297" y2="203.7088">
				<stop  offset="0" style="stop-color:#FED000"/>
				<stop  offset="3.311848e-02" style="stop-color:#FCBD0E"/>
				<stop  offset="0.1499" style="stop-color:#F6803C"/>
				<stop  offset="0.249" style="stop-color:#F2545D"/>
				<stop  offset="0.3256" style="stop-color:#EF3871"/>
				<stop  offset="0.3702" style="stop-color:#EE2E79"/>
				<stop  offset="0.5902" style="stop-color:#A237A4"/>
				<stop  offset="0.8842" style="stop-color:#4142DB"/>
			</linearGradient>
			<path class="st3" d="M218.9,25.3c93.5,0,173.1,79.9,177.8,178.4c2.6,53.9-17.8,102.3-52.1,135c3.6,4.2,6.3,9.3,7.8,14.7
				c2.5,9.3,1.1,19.4-3.4,27.4c-0.2,0.4-0.4,0.7-0.7,0.9c-6.5-0.6-6.7-0.9-7-1.3c-6.4-11-23.5-15.4-30.8-17
				c-22.1,11.9-47.4,18.7-74.5,18.7c-93.5,0-173.1-79.9-177.8-178.4C53.5,104.9,125.1,25.3,218.9,25.3z"/>
			<path class="st4" d="M218.9,25.3c93.5,0,173.1,79.9,177.8,178.4c2.6,53.9-17.8,102.3-52.1,135c3.6,4.2,6.3,9.3,7.8,14.7
				c2.5,9.3,1.1,19.4-3.4,27.4c-0.2,0.4-0.4,0.7-0.7,0.9c-6.5-0.6-6.7-0.9-7-1.3c-6.4-11-23.5-15.4-30.8-17
				c-22.1,11.9-47.4,18.7-74.5,18.7c-93.5,0-173.1-79.9-177.8-178.4C53.5,104.9,125.1,25.3,218.9,25.3z"/>
			<g>
				<g>
					<path class="st5" d="M175.3,108.8c2.8,0,5.6,0,8.4,0c0.7,0.4,1.5,0.3,2.2,0.3c22.8,0,45.5,0,68.3-0.1c2,0,4.1,0.1,6.1,0.4
						c12.8,1.6,23.4,7.4,32.2,16.7c7.8,8.3,12.7,18.1,14.7,29.3c1,5.5,1,11.1,1.3,16.7c0.4,6.5,0.7,13.1,1,19.6
						c0.3,6.5,0.7,13.1,1,19.6c0.3,7.5,0.6,15.1,1,22.6c0.1,1.9,0.2,3.8,0.3,5.7c0.3,4.7,0.6,9.4,0.1,14.1
						c-1.4,12.7-6.4,23.6-15.7,32.5c-5.4,5.2-11.7,8.7-18.9,11c-5.9,1.9-12,2-18,2c-24.8,0.1-49.7,0.1-74.5,0.1
						c-8,0-15.6-1.8-22.6-5.5c-15.4-8.2-25.1-20.9-29.3-37.8c-1.5-6-1.5-12.1-1.9-18.2c-0.4-6.7-0.7-13.5-1-20.2
						c-0.3-6.8-0.6-13.5-1-20.3c-0.3-6-0.5-12-0.8-18.1c-0.1-1.9-0.2-3.7-0.2-5.6c-0.2-6-1-11.9-0.5-17.9
						c1.1-13.2,6.2-24.6,15.8-33.8c7.6-7.3,16.7-11.4,27.1-12.7C172.1,109,173.7,109.3,175.3,108.8z M222.9,280.4
						C222.9,280.4,222.9,280.4,222.9,280.4c13,0,26,0,38.9,0c1.7,0,3.4-0.2,5.1-0.4c15.8-2.3,26.4-15.6,27.2-31.2
						c0.2-5.1-0.4-10.1-0.5-15.2c-0.2-5.9-0.6-11.7-0.9-17.6c-0.2-3.9-0.3-7.9-0.5-11.8c-0.4-7.3-0.8-14.7-1.1-22
						c-0.3-5.8-0.5-11.6-0.8-17.3c-0.1-2-0.2-4.1-0.6-6.1c-1.5-8.9-5.6-16.5-12.4-22.5c-5.7-5-12.3-7.9-19.9-8.3
						c-6.5-0.4-13-0.2-19.5-0.3c-19.7-0.1-39.3,0-59,0c-1.8,0-3.5,0-5.3,0.2c-10.8,1.4-18.8,6.9-24.1,16.4
						c-3.3,6.1-4.6,12.7-4.1,19.6c0.5,6.8,0.7,13.5,1,20.3c0.3,6.7,0.6,13.4,1,20.1c0.3,6.7,0.6,13.5,1,20.2
						c0.3,6.7,0.7,13.4,0.9,20.1c0.3,8.9,3.3,16.8,9.2,23.5c6.8,7.8,15.4,12.1,25.8,12.2C197.2,280.5,210.1,280.4,222.9,280.4z"/>
					<path class="st5" d="M173.4,201.6c-0.2-9.5,2.2-18.2,7.3-26.1c7.7-11.9,18.6-18.9,32.8-20.2c13.6-1.3,25.4,3.2,35.5,12.2
						c9.7,8.7,15.5,19.7,17,32.6c1.9,16.1-2.5,30.2-14.4,41.5c-7,6.7-15.5,10.5-25.2,11.3c-13.2,1.2-24.8-2.8-34.8-11.4
						c-10.8-9.3-16.8-21.1-18.2-35.3c0-0.2,0-0.4,0-0.6C173.4,204.3,173.4,202.9,173.4,201.6z M248.5,205.1
						c-0.7-12.4-6.2-22.6-18.2-28.3c-9.8-4.7-19.5-3.8-28.2,2.9c-7.8,6.1-11.2,14.5-10.7,24.3c0.5,10.4,5,18.9,13.6,24.8
						c9.4,6.4,19.4,7.5,29.5,1.8C243.9,225.2,248.1,216.4,248.5,205.1z"/>
					<path class="st5" d="M254.9,152.8c-0.4-5.3,3.9-11.3,10.8-11.1c4.8,0.2,9.3,3.6,10.7,8.4c1.3,4.2,0.8,8.2-2.1,11.6
						c-3.8,4.4-10.6,4.7-15.1,0.8C256.3,159.9,254.7,156.7,254.9,152.8z"/>
				</g>
			</g>
		</g>
	</g>
</g>
</svg>
