<?xml version="1.0" encoding="utf-8"?>
<!-- Generator: Adobe Illustrator 25.2.3, SVG Export Plug-In . SVG Version: 6.00 Build 0)  -->
<svg version="1.1" id="Layer_1" xmlns="http://www.w3.org/2000/svg" xmlns:xlink="http://www.w3.org/1999/xlink" x="0px" y="0px"
	 viewBox="0 0 419.6 422" style="enable-background:new 0 0 419.6 422;" xml:space="preserve">
<style type="text/css">
	.st0{enable-background:new    ;}
	.st1{clip-path:url(#SVGID_2_);enable-background:new    ;}
	.st2{fill:#08637F;}
	.st3{clip-path:url(#SVGID_4_);enable-background:new    ;}
	.st4{fill:#0E76A8;}
	.st5{fill:#FFFFFF;}
</style>
<g id="Background">
</g>
<g id="Object">
	<g>
		<g>
			<g>
				<g class="st0">
					<g class="st0">
						<g>
							<defs>
								<path id="SVGID_1_" d="M340,382.2l-35.4,14.5c-0.5,0.2-1,0.3-1.5,0.3c-1.6,0-3.2-0.9-4.1-2.5c-6.4-11-23.5-15.4-30.8-17
									l35.4-14.5c7.3,1.6,24.4,6,30.8,17c1,1.6,2.6,2.5,4.1,2.5C339,382.5,339.6,382.4,340,382.2z"/>
							</defs>
							<clipPath id="SVGID_2_">
								<use xlink:href="#SVGID_1_"  style="overflow:visible;"/>
							</clipPath>
							<g class="st1">
								<path class="st2" d="M340,382.2l-35.4,14.5c-0.5,0.2-1,0.3-1.5,0.3c-1.6,0-3.2-0.9-4.1-2.5c-6.4-11-23.5-15.4-30.8-17
									l35.4-14.5c7.3,1.6,24.4,6,30.8,17c1,1.6,2.6,2.5,4.1,2.5C339,382.5,339.6,382.4,340,382.2"/>
							</g>
						</g>
					</g>
					<g class="st0">
						<g>
							<defs>
								<path id="SVGID_3_" d="M288.9,370l-35.4,14.5c-18.4,7.6-38.6,11.7-59.8,11.7c-93.5,0-173.1-79.9-177.8-178.4
									C12.1,141.7,54,76.9,116.3,51.2l35.4-14.5C89.4,62.3,47.5,127.2,51.2,203.4c4.7,98.5,84.4,178.4,177.8,178.4
									C250.3,381.8,270.5,377.5,288.9,370z"/>
							</defs>
							<clipPath id="SVGID_4_">
								<use xlink:href="#SVGID_3_"  style="overflow:visible;"/>
							</clipPath>
							<g class="st3">
								<path class="st2" d="M288.9,370l-35.4,14.5c-18.4,7.6-38.6,11.7-59.8,11.7c-93.5,0-173.1-79.9-177.8-178.4
									C12.1,141.7,54,76.9,116.3,51.2l35.4-14.5C89.4,62.3,47.5,127.2,51.2,203.4c4.7,98.5,84.4,178.4,177.8,178.4
									C250.3,381.8,270.5,377.5,288.9,370"/>
							</g>
						</g>
					</g>
					<g>
						<path class="st4" d="M211.9,25c93.5,0,173.1,79.9,177.8,178.4c2.6,53.9-17.8,102.3-52.1,135c3.6,4.2,6.3,9.3,7.8,14.7
							c2.5,9.3,1.1,19.4-3.4,27.4c-0.8,1.4-2.1,2.1-3.5,2.1c-1.6,0-3.2-0.9-4.1-2.5c-6.4-11-23.5-15.4-30.8-17
							c-22.1,11.9-47.4,18.7-74.5,18.7c-93.5,0-173.1-79.9-177.8-178.4C46.5,104.6,118.1,25,211.9,25z"/>
					</g>
				</g>
			</g>
			<path class="st5" d="M140.8,278.7h34.9V162.3h-34.9V278.7z M276.9,158.3c-16.9,0-32.1,6.2-42.9,19.9V162H199v116.8H234v-63.2
				c0-13.3,12.2-26.4,27.5-26.4s19.1,13,19.1,26v63.5h34.9v-66.1C315.6,166.8,293.8,158.3,276.9,158.3z M158.1,150.7
				c9.7,0,17.5-7.8,17.5-17.5c0-9.7-7.8-17.5-17.5-17.5s-17.5,7.8-17.5,17.5S148.5,150.7,158.1,150.7z"/>
		</g>
	</g>
</g>
</svg>
