<svg width="346" height="334" viewBox="0 0 346 334" fill="none" xmlns="http://www.w3.org/2000/svg">
  <path
    d="M308.721 213.655L219.023 303.352C193.353 329.022 151.676 329.022 126.006 303.352L36.3086 213.655C10.6388 187.985 10.6388 146.308 36.3086 120.638L125.909 30.8428C151.579 5.17299 193.255 5.17299 218.925 30.8428L308.623 120.541C334.39 146.308 334.39 187.985 308.721 213.655Z"
    stroke="#00AEEF" stroke-width="6" stroke-miterlimit="10" />
  <path
    d="M178.127 145.43C178.224 146.406 178.322 147.284 178.322 148.162C178.322 149.822 178.127 151.676 177.834 153.433C175.98 153.726 174.125 153.921 172.563 153.921C171.002 153.921 169.147 153.726 167.293 153.433C167 151.579 166.805 149.724 166.805 148.162C166.805 147.284 166.902 146.406 167 145.43C168.952 145.722 170.904 145.918 172.661 145.918C174.223 146.015 176.175 145.82 178.127 145.43Z"
    fill="#00AEEF" />
  <path
    d="M180.762 145.039C180.86 146.113 180.957 147.284 180.957 148.26C180.957 149.724 180.86 151.383 180.567 153.043C183.983 152.359 187.106 151.481 188.766 150.895C189.351 150.7 189.546 150.7 189.839 150.505C189.937 150.407 190.132 150.407 190.23 150.31C190.327 149.627 190.327 148.943 190.327 148.162C190.327 146.21 190.034 144.356 189.449 142.697L189.351 142.794C187.594 143.282 184.276 144.258 180.762 145.039Z"
    fill="#00AEEF" />
  <path
    d="M188.473 140.257C186.716 140.842 183.69 141.623 180.372 142.306C179.591 137.719 178.322 133.131 177.639 131.082C182.421 132.546 186.326 135.864 188.473 140.257Z"
    fill="#00AEEF" />
  <path
    d="M177.736 142.794C175.882 143.087 174.027 143.282 172.466 143.282C170.807 143.282 169.05 143.087 167.195 142.794C167.878 138.5 169.147 134.01 169.831 131.96C170.026 131.375 170.026 131.179 170.221 130.887C170.319 130.789 170.319 130.594 170.416 130.496C171.099 130.399 171.783 130.399 172.563 130.399C173.344 130.399 174.027 130.496 174.808 130.496C174.808 130.594 174.808 130.594 174.906 130.691C174.906 130.789 175.004 131.082 175.101 131.375C175.492 133.131 176.956 138.012 177.736 142.794Z"
    fill="#00AEEF" />
  <path
    d="M164.462 142.306C165.243 137.719 166.512 133.229 167.195 131.179V131.082C162.51 132.546 158.606 135.864 156.361 140.257C158.118 140.745 161.241 141.623 164.462 142.306Z"
    fill="#00AEEF" />
  <path
    d="M155.385 142.697C154.8 144.454 154.507 146.308 154.507 148.162C154.507 148.943 154.604 149.627 154.604 150.407L154.897 150.505C154.995 150.505 157.63 151.383 161.144 152.262C162.12 152.457 163.193 152.75 164.267 152.945C164.072 151.286 163.877 149.627 163.877 148.162C163.877 147.089 163.974 146.015 164.072 144.942C160.558 144.258 157.24 143.282 155.483 142.794L155.385 142.697Z"
    fill="#00AEEF" />
  <path
    d="M172.466 156.752C173.93 156.752 175.589 156.654 177.248 156.361C176.565 159.777 175.687 162.901 175.101 164.56C174.906 165.146 174.906 165.341 174.711 165.634C174.613 165.731 174.613 165.926 174.515 166.024C173.832 166.122 173.149 166.122 172.368 166.122C171.587 166.122 170.904 166.122 170.221 166.024C170.123 165.829 170.123 165.731 170.026 165.634C169.928 165.341 169.831 165.146 169.635 164.56C169.147 162.901 168.269 159.777 167.488 156.361C169.245 156.556 170.904 156.752 172.466 156.752Z"
    fill="#00AEEF" />
  <path
    d="M160.558 154.897C158.313 154.312 156.459 153.823 155.288 153.433C157.044 159.094 161.534 163.584 167.195 165.341V165.243C166.61 163.389 165.536 159.777 164.853 155.776C163.291 155.58 161.925 155.288 160.558 154.897Z"
    fill="#00AEEF" />
  <path
    d="M189.546 153.433C187.692 154.019 184.081 155.092 180.079 155.776C179.298 159.68 178.224 163.389 177.736 165.243V165.341C183.397 163.584 187.79 159.192 189.546 153.433Z"
    fill="#00AEEF" />
  <path
    d="M192.963 143.575H200.771C201.161 143.575 201.552 143.185 201.552 142.794V139.378C201.552 138.988 201.161 138.597 200.771 138.597C200.38 138.597 199.99 138.988 199.99 139.378V141.525C199.99 141.916 199.6 142.306 199.209 142.306H192.963V143.575Z"
    fill="#00AEEF" />
  <path
    d="M200.771 139.281C201.795 139.281 202.625 138.45 202.625 137.426C202.625 136.402 201.795 135.572 200.771 135.572C199.747 135.572 198.916 136.402 198.916 137.426C198.916 138.45 199.747 139.281 200.771 139.281Z"
    fill="#00AEEF" />
  <path
    d="M152.067 143.575H144.063C143.673 143.575 143.282 143.185 143.282 142.794V139.378C143.282 138.988 143.673 138.597 144.063 138.597C144.454 138.597 144.844 138.988 144.844 139.378V141.525C144.844 141.916 145.234 142.306 145.625 142.306H152.067V143.575Z"
    fill="#00AEEF" />
  <path
    d="M144.063 139.281C145.141 139.281 146.015 138.45 146.015 137.426C146.015 136.402 145.141 135.572 144.063 135.572C142.985 135.572 142.111 136.402 142.111 137.426C142.111 138.45 142.985 139.281 144.063 139.281Z"
    fill="#00AEEF" />
  <path
    d="M152.067 151.383H144.063C143.673 151.383 143.282 151.774 143.282 152.164V155.678C143.282 156.166 143.673 156.459 144.063 156.459C144.454 156.459 144.844 156.068 144.844 155.678V153.433C144.844 152.945 145.234 152.652 145.625 152.652H152.067V151.383Z"
    fill="#00AEEF" />
  <path
    d="M144.063 159.68C145.141 159.68 146.015 158.806 146.015 157.728C146.015 156.65 145.141 155.776 144.063 155.776C142.985 155.776 142.111 156.65 142.111 157.728C142.111 158.806 142.985 159.68 144.063 159.68Z"
    fill="#00AEEF" />
  <path
    d="M192.963 151.383H200.771C201.161 151.383 201.552 151.774 201.552 152.164V155.678C201.552 156.166 201.161 156.459 200.771 156.459C200.38 156.459 199.99 156.068 199.99 155.678V153.433C199.99 152.945 199.6 152.652 199.209 152.652H192.963V151.383Z"
    fill="#00AEEF" />
  <path
    d="M200.771 159.68C201.795 159.68 202.625 158.806 202.625 157.728C202.625 156.65 201.795 155.776 200.771 155.776C199.747 155.776 198.916 156.65 198.916 157.728C198.916 158.806 199.747 159.68 200.771 159.68Z"
    fill="#00AEEF" />
  <path
    d="M144.161 148.455C144.861 148.455 145.43 147.887 145.43 147.186C145.43 146.486 144.861 145.918 144.161 145.918C143.46 145.918 142.892 146.486 142.892 147.186C142.892 147.887 143.46 148.455 144.161 148.455Z"
    stroke="#00AEEF" stroke-width="2" stroke-miterlimit="133.333" stroke-linecap="round" stroke-linejoin="round" />
  <path
    d="M201.747 148.748C202.448 148.748 203.016 148.18 203.016 147.479C203.016 146.778 202.448 146.21 201.747 146.21C201.046 146.21 200.478 146.778 200.478 147.479C200.478 148.18 201.046 148.748 201.747 148.748Z"
    stroke="#00AEEF" stroke-width="2" stroke-miterlimit="133.333" stroke-linecap="round" stroke-linejoin="round" />
  <path
    d="M193.06 171.783C190.23 171.978 186.521 174.808 182.909 176.468C181.543 177.053 179.981 177.346 178.42 177.444C176.956 177.541 176.565 175.492 177.834 175.003C182.421 172.954 182.031 168.757 179.884 168.757C176.956 168.854 175.296 169.538 169.538 170.319C165.146 170.904 159.973 170.709 157.435 171.685C154.604 172.759 150.407 178.81 148.846 181.153C148.455 181.641 148.553 182.324 149.041 182.812L156.166 189.742C156.654 190.23 157.435 190.23 157.923 189.742C159.582 188.278 163.096 185.252 165.048 185.252C171.002 185.252 171.295 185.154 176.858 184.861C179.2 184.764 179.688 184.666 181.055 184.178C188.278 181.738 195.988 175.199 196.184 174.418C196.574 172.466 194.524 171.685 193.06 171.783Z"
    fill="#00AEEF" />
  <path
    d="M90.7715 219.218L96.5301 203.504H100.434L108.047 226.245H88.5266L90.0883 221.658H102.484L101.605 218.73L98.6774 209.653L94.3828 220.194H90.7715V219.218Z"
    fill="#00AEEF" />
  <path d="M113.513 209.067V202.04H117.027V209.067" fill="#00AEEF" />
  <path d="M126.202 211.898V226.245H129.423V202.04H126.202" fill="#00AEEF" />
  <path d="M126.787 213.362H112.928V226.245H116.636V217.364H126.787" fill="#00AEEF" />
  <path d="M197.745 226.245H205.553V221.951H197.745" fill="#00AEEF" />
  <path d="M195.598 226.245H192.084V203.016H195.598" fill="#00AEEF" />
  <path
    d="M177.248 222.146L178.322 226.148C177.932 226.245 177.639 226.245 177.248 226.245C177.151 226.245 177.053 226.245 176.956 226.245C174.808 226.245 172.954 225.562 171.392 224.098C171.295 224.001 171.197 223.903 171.002 223.805C170.904 223.708 170.807 223.61 170.709 223.513C170.514 223.317 170.319 223.025 170.123 222.829C169.245 221.756 168.562 220.487 168.074 219.12C167.586 217.656 167.39 216.095 167.293 214.338V214.24C167.293 214.045 167.293 213.947 167.293 213.752C167.39 210.824 168.171 208.286 169.538 206.237C169.733 206.041 169.831 205.846 170.026 205.651C170.611 204.87 171.295 204.285 172.075 203.797L173.149 207.603L173.247 208.091C173.051 208.286 172.856 208.482 172.661 208.677C172.466 208.97 172.271 209.36 172.075 209.653C171.685 210.434 171.392 211.312 171.197 212.386C171.099 212.971 171.099 213.557 171.099 214.24C171.099 214.435 171.099 214.631 171.099 214.826C171.099 215.119 171.099 215.509 171.197 215.802C171.392 217.364 171.88 218.73 172.661 219.804C172.759 219.999 172.954 220.194 173.051 220.292C173.637 220.877 174.32 221.365 175.101 221.658C175.589 221.853 176.175 221.951 176.76 221.951H176.956L177.248 222.146Z"
    fill="#00AEEF" />
  <path
    d="M174.223 204.089L173.832 202.821C174.808 202.43 175.784 202.235 176.858 202.235H176.956C178.81 202.235 180.372 202.821 181.836 203.797C182.031 203.894 182.129 203.992 182.324 204.187C183.202 204.87 183.885 205.651 184.471 206.627C184.959 207.506 185.447 208.482 185.74 209.653H181.25C181.055 209.262 180.957 208.97 180.762 208.579C180.372 207.896 179.786 207.408 179.2 207.018C178.615 206.627 177.834 206.432 176.956 206.432C176.76 206.432 176.565 206.432 176.272 206.432C175.784 206.53 175.394 206.627 175.004 206.725L174.808 206.139L174.223 204.089Z"
    fill="#00AEEF" />
  <path
    d="M185.74 218.828C185.545 219.608 185.252 220.389 184.861 221.072C184.471 221.853 183.983 222.634 183.495 223.22C183.105 223.61 182.812 224.001 182.421 224.293C181.836 224.781 181.25 225.172 180.567 225.465C180.469 225.562 180.274 225.562 180.177 225.66L179.005 221.463C179.005 221.463 179.103 221.463 179.103 221.365C179.981 220.877 180.762 219.999 181.25 218.828H185.74Z"
    fill="#00AEEF" />
  <path
    d="M277.39 214.338C277.39 215.021 277.39 215.607 277.292 216.29C276.902 218.925 275.828 221.072 273.876 222.829C273.778 222.927 273.778 222.927 273.681 223.025C273.29 223.317 272.9 223.61 272.51 223.903C271.631 224.489 270.558 224.977 269.582 225.367C268.117 225.855 266.556 226.148 264.799 226.245C264.604 226.245 264.409 226.245 264.213 226.245C264.116 226.245 264.018 226.245 263.823 226.245H262.847V222.537H263.823C264.799 222.537 265.775 222.439 266.653 222.244C267.141 222.146 267.629 221.951 268.117 221.658C268.41 221.56 268.703 221.365 268.898 221.17C269.289 220.877 269.679 220.584 269.972 220.292C270.167 220.096 270.46 219.804 270.655 219.511C271.143 218.925 271.436 218.242 271.729 217.559C271.924 217.071 272.022 216.583 272.119 215.997C272.217 215.509 272.217 214.923 272.217 214.338C272.217 213.85 272.217 213.459 272.119 212.971C272.022 212.093 271.826 211.214 271.436 210.434C271.046 209.653 270.558 208.872 269.972 208.286C269.972 208.286 269.972 208.286 269.874 208.189C269.582 207.896 269.191 207.603 268.898 207.408C268.605 207.213 268.313 207.018 268.02 206.92C267.629 206.725 267.239 206.627 266.751 206.432C265.873 206.139 264.799 206.041 263.725 206.041H262.749V202.333H263.725C264.018 202.333 264.311 202.333 264.604 202.333C265.58 202.333 266.556 202.43 267.434 202.625C269.484 203.016 271.241 203.797 272.705 204.87C272.998 205.065 273.29 205.261 273.583 205.553C274.071 206.041 274.559 206.53 275.047 207.018C275.535 207.701 276.023 208.384 276.316 209.067C276.511 209.458 276.609 209.848 276.804 210.238C277.195 211.702 277.39 212.971 277.39 214.338Z"
    fill="#00AEEF" />
  <path d="M217.949 202.235L217.656 202.723L217.559 202.333C217.656 202.333 217.754 202.333 217.949 202.235Z" fill="#00AEEF" />
  <path
    d="M221.268 222.537L222.244 225.953C221.56 226.148 220.78 226.245 219.999 226.245C219.901 226.245 219.901 226.245 219.901 226.245C219.511 226.245 219.12 226.245 218.828 226.148C217.461 226.05 216.192 225.562 215.021 224.879C214.143 224.391 213.362 223.708 212.679 222.829C211.898 221.951 211.214 220.877 210.824 219.804C210.629 219.413 210.434 218.925 210.336 218.437C209.946 217.168 209.75 215.704 209.75 214.143C209.75 213.557 209.75 213.069 209.848 212.581C209.848 212.386 209.946 212.093 209.946 211.898C210.141 210.141 210.726 208.579 211.507 207.213C211.898 206.627 212.288 205.944 212.776 205.456C212.874 205.358 212.971 205.261 213.069 205.163C213.85 204.285 214.826 203.601 215.802 203.113L216.387 205.163L217.071 207.31C216.68 207.603 216.29 207.896 215.899 208.286C215.802 208.384 215.802 208.384 215.704 208.482C214.728 209.653 214.143 211.214 214.045 213.069C214.045 213.362 214.045 213.752 214.045 214.143V214.338C214.045 215.411 214.24 216.485 214.533 217.364C214.826 218.242 215.216 219.023 215.802 219.706C216.095 220.096 216.387 220.389 216.778 220.682C216.876 220.78 216.876 220.78 216.973 220.877L217.071 220.975C217.949 221.56 219.023 221.853 220.194 221.853C220.584 221.853 220.975 221.853 221.365 221.756L221.268 222.537Z"
    fill="#00AEEF" />
  <path
    d="M230.15 214.143C230.15 215.802 229.954 217.266 229.466 218.632C229.076 219.706 228.588 220.78 228.002 221.658C227.71 222.049 227.514 222.341 227.222 222.732C226.733 223.317 226.245 223.805 225.66 224.196C225.465 224.293 225.269 224.489 225.074 224.586C224.977 224.684 224.977 224.684 224.879 224.684C224.684 224.781 224.489 224.977 224.196 225.074L223.805 223.903L223.025 221.365L222.927 220.877C223.415 220.584 223.903 220.096 224.293 219.608C224.586 219.218 224.879 218.828 225.074 218.437C225.367 217.754 225.66 217.071 225.855 216.29C225.953 215.607 226.05 214.826 226.05 213.947C226.05 211.605 225.465 209.75 224.391 208.384C223.708 207.506 222.829 206.92 221.853 206.53C221.365 206.334 220.877 206.334 220.292 206.237C220.194 206.237 220.096 206.237 219.999 206.237C219.608 206.237 219.218 206.237 218.828 206.334L217.754 202.528L218.047 202.04C218.632 201.942 219.12 201.845 219.706 201.845C219.804 201.845 219.901 201.845 220.096 201.845C221.463 201.845 222.732 202.137 223.903 202.625L225.855 203.797H225.953C226.538 204.187 227.026 204.675 227.514 205.261C228.49 206.432 229.271 207.701 229.759 209.262C230.052 210.141 230.247 211.019 230.345 211.995C230.15 212.776 230.15 213.459 230.15 214.143Z"
    fill="#00AEEF" />
  <path d="M225.66 203.992L223.708 202.821C224.391 203.113 225.074 203.504 225.66 203.992Z" fill="#00AEEF" />
  <path d="M250.841 223.805C250.841 223.903 250.744 223.903 250.744 223.903L250.646 223.513L250.841 223.805Z" fill="#00AEEF" />
  <path d="M248.792 225.269L247.328 221.072H247.425L248.792 225.269Z" fill="#00AEEF" />
  <path
    d="M247.328 221.072L248.694 225.269C247.523 225.855 246.352 226.148 244.888 226.148C244.693 226.148 244.497 226.148 244.4 226.148C244.302 226.148 244.009 226.148 243.814 226.148C241.569 226.05 239.715 225.269 238.153 223.903C238.056 223.805 238.056 223.805 237.958 223.708C237.86 223.61 237.665 223.415 237.568 223.317C236.787 222.439 236.201 221.268 235.811 219.999C235.713 219.413 235.518 218.828 235.518 218.242C235.42 217.754 235.42 217.364 235.42 216.778V202.235H239.91V216.778C239.91 217.168 239.91 217.656 240.008 217.949C240.105 219.023 240.496 219.804 241.081 220.487C241.179 220.584 241.374 220.78 241.472 220.877C241.96 221.268 242.545 221.463 243.229 221.658C243.619 221.756 244.009 221.756 244.4 221.756C245.376 221.756 246.254 221.56 246.937 221.17C247.133 221.17 247.23 221.17 247.328 221.072Z"
    fill="#00AEEF" />
  <path
    d="M253.575 202.333V216.973C253.575 217.559 253.575 218.242 253.477 218.828C253.477 219.023 253.379 219.218 253.379 219.316C252.989 221.17 252.208 222.634 250.939 223.805C250.939 223.805 250.939 223.805 250.842 223.805L250.549 223.61L249.475 220.292L249.085 219.218L248.89 218.535C248.987 218.047 249.085 217.461 249.085 216.875V202.333H253.575Z"
    fill="#00AEEF" />
  <path
    d="M153.726 214.338C153.726 215.021 153.628 215.607 153.628 216.29C153.238 218.925 152.164 221.072 150.212 222.829C150.115 222.927 150.115 222.927 150.017 223.025C149.627 223.317 149.236 223.61 148.846 223.903C147.967 224.489 146.991 224.977 145.82 225.367C144.356 225.855 142.794 226.148 141.037 226.245C140.842 226.245 140.647 226.245 140.452 226.245C140.354 226.245 140.257 226.245 140.061 226.245H139.085V222.537H140.061C141.135 222.537 142.013 222.439 142.892 222.244C143.38 222.146 143.868 221.951 144.356 221.658C144.649 221.56 144.942 221.365 145.137 221.17C145.527 220.877 145.918 220.584 146.21 220.292C146.406 220.096 146.698 219.804 146.894 219.511C147.382 218.925 147.674 218.242 147.967 217.559C148.162 217.071 148.26 216.583 148.358 215.997C148.455 215.509 148.455 214.923 148.455 214.338C148.455 213.85 148.455 213.459 148.358 212.971C148.26 212.093 148.065 211.214 147.674 210.434C147.284 209.653 146.796 208.872 146.21 208.286C146.21 208.286 146.113 208.286 146.113 208.189C145.82 207.896 145.43 207.603 145.137 207.408C144.844 207.213 144.551 207.018 144.258 206.92C143.868 206.725 143.478 206.627 142.989 206.432C142.111 206.139 141.037 206.041 139.964 206.041H138.988V202.333H139.964C140.257 202.333 140.549 202.333 140.842 202.333C141.818 202.333 142.794 202.43 143.673 202.625C145.722 203.016 147.479 203.797 148.943 204.87C149.236 205.065 149.529 205.261 149.822 205.553C150.407 206.041 150.798 206.53 151.286 207.018C151.774 207.701 152.262 208.384 152.555 209.067C152.75 209.458 152.847 209.848 153.043 210.238C153.531 211.702 153.726 212.971 153.726 214.338Z"
    fill="#00AEEF" />
  <path d="M81.4991 202.918H67.4442V206.53H81.4991V202.918Z" fill="#00AEEF" />
  <path d="M81.4985 216.192V215.997L81.1087 216.192H81.4985Z" fill="#00AEEF" />
  <path d="M81.4991 212.581V215.899L80.9135 216.192H72.2268V226.245H67.4442V212.581H72.2268H81.4991Z" fill="#00AEEF" />
  <path d="M81.4982 215.899V215.997L81.1084 216.192H80.9135L81.4982 215.899Z" fill="#00AEEF" />
  <path
    d="M144.746 146.991C124.054 148.748 107.852 138.207 108.828 119.174C109.219 111.951 111.854 96.5301 134.205 92.626C134.303 80.0351 149.236 58.4646 177.444 59.1479C198.038 59.6359 220.096 81.3039 217.559 104.924C230.15 108.145 236.396 111.951 235.908 126.202C235.225 146.21 219.999 147.967 201.552 147.382"
    stroke="#00AEEF" stroke-width="5" stroke-miterlimit="133.333" stroke-linecap="round" stroke-linejoin="round" />
</svg>