<svg width="1504" height="1011" viewBox="0 0 1504 1011" fill="none" xmlns="http://www.w3.org/2000/svg">
<path opacity="0.15" d="M1487.03 88.323L1227.69 158.765L1297.52 420.374L1487.03 88.323ZM1373.69 174.695L1315.57 276.565L1294.19 196.37L1373.69 174.695Z" fill="black" stroke="black" stroke-width="2"/>
<path d="M1476.28 69.8998L1216.95 140.341L1286.78 401.951L1476.28 69.8998ZM1362.95 156.272L1304.83 258.141L1283.45 177.946L1362.95 156.272Z" fill="white" stroke="black" stroke-width="2"/>
<path d="M1237.9 218.694L1238.87 222.487L1250.9 219.236L1249.93 215.443L1237.9 218.694ZM1246.92 252.506L1247.89 256.299L1259.92 253.048L1258.96 249.255L1246.92 252.506ZM1233.39 201.788L1234.35 205.581L1246.39 202.33L1245.42 198.537L1233.39 201.788ZM1244.67 244.053L1245.63 247.846L1257.67 244.595L1256.7 240.802L1244.67 244.053ZM1242.41 235.6L1243.38 239.393L1264.33 233.65L1263.36 229.856L1242.41 235.6ZM1240.16 227.147L1241.12 230.94L1253.15 227.689L1252.19 223.896L1240.16 227.147ZM1235.64 210.241L1236.61 214.034L1248.64 210.783L1247.68 206.99L1235.64 210.241ZM1222.11 159.523L1223.07 163.316L1235.11 160.065L1234.14 156.272L1222.11 159.523ZM1224.36 167.976L1225.33 171.769L1237.36 168.518L1236.4 164.725L1224.36 167.976ZM1231.13 193.335L1232.1 197.128L1253.05 191.385L1252.08 187.592L1231.13 193.335ZM1219.85 151.07L1220.82 154.863L1241.77 149.12L1240.8 145.327L1219.85 151.07ZM1226.62 176.429L1227.59 180.222L1239.62 176.971L1238.65 173.178L1226.62 176.429ZM1228.88 184.882L1229.84 188.675L1241.87 185.424L1240.91 181.631L1228.88 184.882ZM1262.72 311.786L1263.68 315.579L1275.71 312.327L1274.75 308.534L1262.72 311.786ZM1269.48 337.145L1270.45 340.938L1282.48 337.686L1281.52 333.893L1269.48 337.145ZM1271.74 345.597L1272.71 349.391L1284.74 346.139L1283.77 342.346L1271.74 345.597ZM1249.18 260.959L1250.15 264.752L1262.18 261.501L1261.21 257.708L1249.18 260.959ZM1267.23 328.691L1268.19 332.484L1280.23 329.233L1279.26 325.44L1267.23 328.691ZM1297.31 356.76L1276.36 362.503L1277.33 366.296L1298.27 360.553L1297.31 356.76ZM1274 354.051L1274.96 357.844L1286.99 354.592L1286.03 350.799L1274 354.051ZM1264.97 320.239L1265.94 324.032L1286.89 318.288L1285.92 314.495L1264.97 320.239ZM1253.69 277.865L1254.66 281.658L1275.61 275.914L1274.64 272.121L1253.69 277.865ZM1251.44 269.412L1252.4 273.205L1264.43 269.954L1263.47 266.161L1251.44 269.412ZM1255.95 286.318L1256.91 290.111L1268.95 286.86L1267.98 283.067L1255.95 286.318ZM1260.46 303.333L1261.43 307.126L1273.46 303.874L1272.49 300.081L1260.46 303.333ZM1258.2 294.88L1259.17 298.673L1271.2 295.421L1270.24 291.628L1258.2 294.88Z" fill="black"/>
<path opacity="0.15" d="M887.682 473.91C887.79 492.658 874.791 508.047 858.677 508.047L689.799 509.022C673.685 509.13 660.578 493.958 660.471 475.21L659.934 387.321C659.826 368.572 672.825 353.183 688.939 353.183L857.817 352.208C873.931 352.1 887.038 367.272 887.145 386.02L887.682 473.91Z" fill="black" stroke="black" stroke-width="2"/>
<path d="M868.13 475.969C868.238 494.717 855.239 510.106 839.124 510.106L670.247 511.081C654.133 511.189 641.026 496.017 640.919 477.269L640.382 389.38C640.274 370.631 653.273 355.243 669.387 355.243L838.265 354.267C854.379 354.159 867.486 369.331 867.593 388.079L868.13 475.969Z" fill="white" stroke="black" stroke-width="2"/>
<path d="M1305.79 40.4227L198.421 46.7082C198.313 24.8171 215.717 7.04417 237.417 6.93579L1266.37 1.08372C1288.07 0.975349 1305.69 18.5316 1305.79 40.4227Z" fill="white" stroke="black" stroke-width="2"/>
<path d="M1141 417.231L367.406 421.566L198.421 46.2747L1305.79 39.9892L1141 417.231Z" fill="#444445" stroke="black" stroke-width="2"/>
<path d="M1134.88 388.079L374.603 396.099L248.052 77.8109L1256.48 72.1756L1134.88 388.079Z" fill="#90CAF9" stroke="black" stroke-width="2"/>
<path opacity="0.19" d="M198.421 46.7082L367.406 421.566L527.367 420.699L990.599 40.4227L198.421 46.7082Z" fill="white"/>
<path d="M1041.64 634.776L435.245 695.909L459.612 941.869L1066.01 880.735L1041.64 634.776Z" fill="#99999A" stroke="black" stroke-width="2"/>
<path d="M742.976 664.969V607.424C742.976 598.104 735.456 590.518 726.217 590.518H606.649C597.41 590.518 589.89 598.104 589.89 607.424V635.275C589.89 644.595 582.37 652.181 573.131 652.181H542.085C532.846 652.181 525.326 644.595 525.326 635.275V575.454C525.326 566.134 532.846 558.548 542.085 558.548H627.383C636.622 558.548 644.142 550.962 644.142 541.642C644.142 532.322 636.622 524.736 627.383 524.736H393.941C384.702 524.736 377.182 517.15 377.182 507.83V482.579C377.182 473.259 384.702 465.673 393.941 465.673H528.548C537.787 465.673 545.307 458.087 545.307 448.767V424.817" stroke="black" stroke-width="2"/>
<path d="M483.221 702.86L446.878 706.525L450.51 743.188L486.853 739.522L483.221 702.86Z" fill="white" stroke="black" stroke-width="2"/>
<path d="M531.67 697.987L495.327 701.651L498.96 738.314L535.303 734.649L531.67 697.987Z" fill="white" stroke="black" stroke-width="2"/>
<path d="M577.209 693.323L540.866 696.986L544.497 733.648L580.84 729.985L577.209 693.323Z" fill="white" stroke="black" stroke-width="2"/>
<path d="M668.206 684.227L631.863 687.891L635.494 724.553L671.837 720.889L668.206 684.227Z" fill="white" stroke="black" stroke-width="2"/>
<path d="M622.761 688.77L586.418 692.434L590.05 729.096L626.393 725.432L622.761 688.77Z" fill="white" stroke="black" stroke-width="2"/>
<path d="M713.747 679.566L677.404 683.23L681.036 719.893L717.379 716.229L713.747 679.566Z" fill="white" stroke="black" stroke-width="2"/>
<path d="M759.3 675.014L722.957 678.679L726.59 715.341L762.933 711.676L759.3 675.014Z" fill="white" stroke="black" stroke-width="2"/>
<path d="M804.849 670.458L768.506 674.121L772.137 710.783L808.48 707.12L804.849 670.458Z" fill="white" stroke="black" stroke-width="2"/>
<path d="M850.39 665.797L814.047 669.461L817.679 706.123L854.022 702.459L850.39 665.797Z" fill="white" stroke="black" stroke-width="2"/>
<path d="M895.833 661.252L859.49 664.915L863.121 701.578L899.464 697.915L895.833 661.252Z" fill="white" stroke="black" stroke-width="2"/>
<path d="M941.385 656.699L905.042 660.363L908.674 697.025L945.017 693.362L941.385 656.699Z" fill="white" stroke="black" stroke-width="2"/>
<path d="M561.642 742.736L525.299 746.4L528.93 783.062L565.273 779.398L561.642 742.736Z" fill="white" stroke="black" stroke-width="2"/>
<path d="M517.096 747.226L451.572 753.833L455.205 790.496L520.729 783.889L517.096 747.226Z" fill="white" stroke="black" stroke-width="2"/>
<path d="M607.078 738.089L570.735 741.754L574.369 778.416L610.712 774.751L607.078 738.089Z" fill="white" stroke="black" stroke-width="2"/>
<path d="M698.182 728.982L661.839 732.648L665.473 769.31L701.816 765.644L698.182 728.982Z" fill="white" stroke="black" stroke-width="2"/>
<path d="M652.626 733.531L616.283 737.194L619.914 773.856L656.257 770.193L652.626 733.531Z" fill="white" stroke="black" stroke-width="2"/>
<path d="M743.718 724.315L707.375 727.978L711.006 764.64L747.349 760.977L743.718 724.315Z" fill="white" stroke="black" stroke-width="2"/>
<path d="M789.273 719.765L752.929 723.43L756.562 760.092L792.906 756.427L789.273 719.765Z" fill="white" stroke="black" stroke-width="2"/>
<path d="M834.705 715.112L798.362 718.776L801.994 755.438L838.337 751.775L834.705 715.112Z" fill="white" stroke="black" stroke-width="2"/>
<path d="M880.256 710.558L843.913 714.222L847.545 750.884L883.888 747.221L880.256 710.558Z" fill="white" stroke="black" stroke-width="2"/>
<path d="M925.805 706.003L889.462 709.666L893.093 746.328L929.436 742.665L925.805 706.003Z" fill="white" stroke="black" stroke-width="2"/>
<path d="M586.235 786.731L549.892 790.394L553.522 827.056L589.866 823.393L586.235 786.731Z" fill="white" stroke="black" stroke-width="2"/>
<path d="M538.536 791.567L456.123 799.876L459.755 836.538L542.168 828.229L538.536 791.567Z" fill="white" stroke="black" stroke-width="2"/>
<path d="M631.681 782.191L595.338 785.855L598.97 822.517L635.314 818.853L631.681 782.191Z" fill="white" stroke="black" stroke-width="2"/>
<path d="M722.773 772.976L686.43 776.64L690.062 813.302L726.406 809.638L722.773 772.976Z" fill="white" stroke="black" stroke-width="2"/>
<path d="M677.222 777.529L640.879 781.193L644.511 817.855L680.854 814.191L677.222 777.529Z" fill="white" stroke="black" stroke-width="2"/>
<path d="M768.325 768.422L731.982 772.086L735.614 808.748L771.957 805.084L768.325 768.422Z" fill="white" stroke="black" stroke-width="2"/>
<path d="M813.869 763.763L777.526 767.43L781.16 804.092L817.503 800.426L813.869 763.763Z" fill="white" stroke="black" stroke-width="2"/>
<path d="M859.308 759.215L822.965 762.878L826.596 799.54L862.939 795.877L859.308 759.215Z" fill="white" stroke="black" stroke-width="2"/>
<path d="M904.858 754.661L868.515 758.323L872.146 794.985L908.489 791.323L904.858 754.661Z" fill="white" stroke="black" stroke-width="2"/>
<path d="M609.867 829.216L573.524 832.881L577.157 869.543L613.5 865.878L609.867 829.216Z" fill="white" stroke="black" stroke-width="2"/>
<path d="M565.015 833.803L460.475 844.341L464.107 881.003L568.646 870.465L565.015 833.803Z" fill="white" stroke="black" stroke-width="2"/>
<path d="M655.308 824.667L618.965 828.328L622.595 864.991L658.938 861.329L655.308 824.667Z" fill="white" stroke="black" stroke-width="2"/>
<path d="M746.404 815.457L710.061 819.122L713.694 855.784L750.037 852.119L746.404 815.457Z" fill="white" stroke="black" stroke-width="2"/>
<path d="M700.864 820.119L664.521 823.784L668.154 860.446L704.497 856.781L700.864 820.119Z" fill="white" stroke="black" stroke-width="2"/>
<path d="M501.481 887.741L465.138 891.406L468.771 928.068L505.114 924.403L501.481 887.741Z" fill="white" stroke="black" stroke-width="2"/>
<path d="M549.387 882.866L513.044 886.53L516.677 923.192L553.02 919.528L549.387 882.866Z" fill="white" stroke="black" stroke-width="2"/>
<path d="M640.49 873.758L604.147 877.422L607.779 914.084L644.123 910.42L640.49 873.758Z" fill="white" stroke="black" stroke-width="2"/>
<path d="M862.212 851.364L654.629 872.292L658.261 908.954L865.844 888.026L862.212 851.364Z" fill="white" stroke="black" stroke-width="2"/>
<path d="M594.939 878.311L558.595 881.975L562.228 918.638L598.571 914.974L594.939 878.311Z" fill="white" stroke="black" stroke-width="2"/>
<path d="M791.954 810.902L755.611 814.566L759.243 851.228L795.586 847.564L791.954 810.902Z" fill="white" stroke="black" stroke-width="2"/>
<path d="M837.505 806.348L801.162 810.011L804.794 846.674L841.137 843.01L837.505 806.348Z" fill="white" stroke="black" stroke-width="2"/>
<path d="M882.938 801.695L846.594 805.358L850.225 842.02L886.569 838.357L882.938 801.695Z" fill="white" stroke="black" stroke-width="2"/>
<path d="M928.492 797.144L892.149 800.808L895.781 837.471L932.124 833.806L928.492 797.144Z" fill="white" stroke="black" stroke-width="2"/>
<path d="M910.123 846.562L873.78 850.226L877.412 886.888L913.755 883.224L910.123 846.562Z" fill="white" stroke="black" stroke-width="2"/>
<path d="M955.674 842.008L919.331 845.672L922.963 882.334L959.306 878.67L955.674 842.008Z" fill="white" stroke="black" stroke-width="2"/>
<path d="M1001.21 837.345L964.871 841.009L968.502 877.671L1004.85 874.008L1001.21 837.345Z" fill="white" stroke="black" stroke-width="2"/>
<path d="M1050.74 832.365L1014.4 836.03L1018.03 872.692L1054.37 869.028L1050.74 832.365Z" fill="white" stroke="black" stroke-width="2"/>
<path d="M1046.06 785.304L940.34 795.961L943.972 832.624L1049.69 821.966L1046.06 785.304Z" fill="white" stroke="black" stroke-width="2"/>
<path d="M950.4 750L914.057 753.663L917.688 790.325L954.031 786.662L950.4 750Z" fill="white" stroke="black" stroke-width="2"/>
<path d="M1041.7 740.812L958.436 749.207L962.068 785.869L1045.34 777.474L1041.7 740.812Z" fill="white" stroke="black" stroke-width="2"/>
<path d="M971.351 701.345L935.008 705.011L938.642 741.673L974.985 738.007L971.351 701.345Z" fill="white" stroke="black" stroke-width="2"/>
<path d="M1037.16 694.759L982 700.319L985.632 736.981L1040.79 731.421L1037.16 694.759Z" fill="white" stroke="black" stroke-width="2"/>
<path d="M986.927 652.039L950.584 655.702L954.216 692.365L990.559 688.701L986.927 652.039Z" fill="white" stroke="black" stroke-width="2"/>
<path d="M1032.48 647.485L996.136 651.15L999.769 687.812L1036.11 684.148L1032.48 647.485Z" fill="white" stroke="black" stroke-width="2"/>
<path opacity="0.15" d="M1269.48 790.897C1275.07 805.31 1268.52 821.349 1254.98 826.66L1209.86 844.324C1196.32 849.634 1180.75 842.265 1175.16 827.852L1139.92 736.494C1134.34 722.081 1140.89 706.042 1154.43 700.732L1199.55 683.067C1213.19 677.757 1228.66 685.126 1234.25 699.54L1269.48 790.897Z" fill="black" stroke="black" stroke-width="2"/>
<path d="M1251.22 790.897C1256.81 805.31 1250.25 821.349 1236.72 826.66L1191.6 844.324C1178.06 849.634 1162.48 842.265 1156.9 827.852L1121.66 736.494C1116.08 722.081 1122.63 706.042 1136.16 700.732L1181.28 683.067C1194.93 677.757 1210.4 685.126 1215.98 699.54L1251.22 790.897Z" fill="white" stroke="black" stroke-width="2"/>
<path d="M1157.54 692.387L1121.77 554.213C1118.55 542.942 1114.68 538.174 1105.87 538.174H1004.46C995.648 538.174 988.558 545.327 988.558 554.213V555.622C988.558 564.508 995.648 571.661 1004.46 571.661H1055.27C1064.08 571.661 1071.17 578.813 1071.17 587.7V588.567C1071.17 597.453 1064.08 604.606 1055.27 604.606H933.339C924.53 604.606 917.44 597.453 917.44 588.567V509.456C917.44 500.569 924.53 493.417 933.339 493.417H1033.89C1042.7 493.417 1049.79 486.264 1049.79 477.378V417.556" stroke="black" stroke-width="2"/>
<path d="M1176.45 725.982C1177.31 728.258 1176.34 730.859 1174.09 731.726C1171.94 732.593 1169.36 731.401 1168.5 729.125L1161.73 711.677C1160.87 709.401 1161.84 706.801 1164.1 705.934C1166.24 705.067 1168.82 706.259 1169.68 708.534L1176.45 725.982Z" fill="#DADCDC" stroke="black" stroke-width="2"/>
<g opacity="0.15">
<path d="M1275.23 479.834L1264.03 487.307L1384.23 670.602L1395.42 663.128L1275.23 479.834Z" fill="black" stroke="black" stroke-width="2"/>
<path d="M1264.22 487.673L1256.7 463.939L1275.5 480.195L1264.22 487.673Z" fill="black" stroke="black" stroke-width="2"/>
<path d="M1261.96 468.491L1258.31 468.925L1256.7 463.939L1261.96 468.491Z" fill="black" stroke="black" stroke-width="2"/>
</g>
<path d="M1267.94 478.996L1256.74 486.47L1376.93 669.765L1388.13 662.291L1267.94 478.996Z" fill="#ED3224" stroke="black" stroke-width="2"/>
<path d="M1257.02 486.806L1249.5 463.072L1268.19 479.328L1257.02 486.806Z" fill="#F6F0E1" stroke="black" stroke-width="2"/>
<path d="M1254.66 467.624L1251.01 468.058L1249.5 463.072L1254.66 467.624Z" fill="#635E5B" stroke="black" stroke-width="2"/>
<g opacity="0.15">
<path d="M1255.73 602.655C1256.81 602.547 1257.67 601.138 1257.56 599.513L1256.05 578.38C1255.95 576.755 1254.98 575.454 1253.8 575.562L1238.01 576.755C1236.93 576.863 1236.07 578.272 1236.18 579.897L1237.68 601.03C1237.79 602.655 1238.76 603.956 1239.94 603.847L1255.73 602.655Z" fill="black" stroke="black" stroke-width="2"/>
<path d="M1286.35 571.745L1244.03 574.87L1246.2 604.808L1288.52 601.683L1286.35 571.745Z" fill="black" stroke="black" stroke-width="2"/>
</g>
<path d="M1251.11 601.68C1252.19 601.572 1253.05 600.163 1252.94 598.537L1251.44 577.405C1251.33 575.779 1250.36 574.479 1249.18 574.587L1233.39 575.779C1232.31 575.887 1231.45 577.296 1231.56 578.922L1233.07 600.054C1233.17 601.68 1234.14 602.98 1235.32 602.872L1251.11 601.68Z" fill="#ECECEC" stroke="black" stroke-width="2"/>
<path d="M1281.73 570.775L1239.41 573.901L1241.59 603.839L1283.91 600.713L1281.73 570.775Z" fill="#485784" stroke="black" stroke-width="2"/>
<g opacity="0.15">
<path d="M1447.71 626.389C1448.57 628.448 1447.6 630.832 1445.56 631.699L1432.24 637.443C1430.2 638.31 1427.83 637.334 1426.97 635.275L1416.45 610.133C1415.59 608.074 1416.55 605.69 1418.59 604.823L1431.92 599.079C1433.96 598.212 1436.32 599.187 1437.18 601.246L1447.71 626.389Z" fill="black" stroke="black" stroke-width="2"/>
<path d="M1351.99 459.171L1352.2 429.911L1373.15 450.176L1351.99 459.171Z" fill="black" stroke="black" stroke-width="2"/>
<path d="M1439.76 606.99L1418.81 615.877L1351.99 458.954L1372.94 449.959L1439.76 606.99Z" fill="black" stroke="black" stroke-width="2"/>
<path d="M1440.86 605.831L1417.42 615.846L1422.57 628.121L1446.02 618.107L1440.86 605.831Z" fill="black" stroke="black" stroke-width="2"/>
</g>
<path d="M1451.68 618.044C1452.54 620.103 1451.57 622.487 1449.53 623.354L1436.21 629.098C1434.17 629.965 1431.81 628.99 1430.95 626.93L1420.42 601.788C1419.56 599.729 1420.53 597.345 1422.57 596.478L1435.89 590.734C1437.93 589.867 1440.29 590.843 1441.15 592.902L1451.68 618.044Z" fill="#F7F1E7" stroke="black" stroke-width="2"/>
<path d="M1355.96 450.826L1356.07 421.566L1377.02 441.832L1355.96 450.826Z" fill="#E9BB8D" stroke="black" stroke-width="2"/>
<path d="M1443.63 598.646L1422.68 607.532L1355.96 450.61L1376.91 441.615L1443.63 598.646Z" fill="#F27467" stroke="black" stroke-width="2"/>
<path d="M1438.04 601.03L1428.37 605.148L1361.55 448.226L1371.22 443.999L1438.04 601.03Z" fill="#EE3E23" stroke="black" stroke-width="2"/>
<path d="M1356.07 421.566V427.743L1360.58 425.901L1356.07 421.566Z" fill="#323232" stroke="black" stroke-width="2"/>
<path d="M1444.73 597.501L1421.29 607.515L1426.44 619.791L1449.89 609.777L1444.73 597.501Z" fill="#7C513A" stroke="black" stroke-width="2"/>
<g opacity="0.15">
<path d="M1429.66 786.967L1285.55 863.973L1345.29 977.746L1489.4 900.739L1429.66 786.967Z" fill="black" stroke="black" stroke-width="2"/>
<path d="M1424.49 775.087L1278.67 853.007L1288.83 872.352L1434.65 794.433L1424.49 775.087Z" fill="black" stroke="black" stroke-width="2"/>
</g>
<path d="M1421.52 800.003L1277.41 877.01L1337.15 990.782L1481.26 913.776L1421.52 800.003Z" fill="white" stroke="black" stroke-width="2"/>
<path d="M1416.39 787.978L1270.57 865.897L1280.73 885.242L1426.55 807.323L1416.39 787.978Z" fill="#90CAF9" stroke="black" stroke-width="2"/>
<path d="M1425.22 839.001L1308.26 901.499L1312.94 910.406L1429.9 847.908L1425.22 839.001Z" fill="#C8C3C2" stroke="black" stroke-width="2"/>
<path d="M1435.79 859.267L1318.83 921.765L1323.5 930.671L1440.46 868.173L1435.79 859.267Z" fill="#C8C3C2" stroke="black" stroke-width="2"/>
<path d="M1401.27 903.601L1329.5 941.952L1334.18 950.858L1405.95 912.507L1401.27 903.601Z" fill="#C8C3C2" stroke="black" stroke-width="2"/>
<g opacity="0.15">
<path d="M278.347 415.931C260.192 471.959 200.462 502.52 144.921 484.205C89.3805 465.998 59.0857 405.744 77.2411 349.716C95.3965 293.687 155.127 263.127 210.667 281.441C266.208 299.648 296.503 359.903 278.347 415.931Z" fill="black" stroke="black" stroke-width="2"/>
<path d="M85.341 408.114L32.9154 435.842L47.3786 463.679L99.8041 435.951L85.341 408.114Z" fill="black" stroke="black" stroke-width="2"/>
</g>
<path d="M225.17 285.993C169.63 267.678 109.899 298.239 91.744 354.267C84.8685 375.616 84.976 397.508 90.7771 417.448L47.4834 440.314L61.8788 468.166L103.883 445.95C116.56 465.457 135.682 480.954 159.424 488.757C214.965 507.071 274.695 476.511 292.85 420.482C311.006 364.454 280.711 304.199 225.17 285.993Z" fill="white" stroke="black" stroke-width="2"/>
<path d="M274.373 414.414C259.547 460.146 210.775 485.18 165.44 470.225C120.105 455.27 95.2891 406.069 110.114 360.336C124.939 314.603 173.712 289.569 219.047 304.525C264.382 319.48 289.198 368.681 274.373 414.414Z" fill="#90CAF9" stroke="black" stroke-width="2"/>
</svg>
