<?xml version="1.0" encoding="utf-8"?>
<!-- Generator: Adobe Illustrator 25.2.3, SVG Export Plug-In . SVG Version: 6.00 Build 0)  -->
<svg version="1.1" id="Layer_1" xmlns="http://www.w3.org/2000/svg" xmlns:xlink="http://www.w3.org/1999/xlink" x="0px" y="0px"
	 viewBox="0 0 419.6 422" style="enable-background:new 0 0 419.6 422;" xml:space="preserve">
<style type="text/css">
	.st0{enable-background:new    ;}
	.st1{clip-path:url(#SVGID_1_);enable-background:new    ;}
	.st2{fill:#BCBA32;}
	.st3{clip-path:url(#SVGID_2_);enable-background:new    ;}
	.st4{fill:#FBED21;}
	.st5{fill:#FFFFFF;stroke:#000000;stroke-width:5;stroke-miterlimit:10;}
</style>
<g id="Background">
</g>
<g id="Background_1_">
</g>
<g>
	<g>
		<g>
			<g class="st0">
				<g class="st0">
					<defs>
						<path id="SVGID_65_" class="st0" d="M347.7,381.9l-35.2,14.5c-0.5,0.2-1,0.3-1.5,0.3c-1.6,0-3.2-0.9-4.1-2.5
							c-6.4-10.9-23.4-15.3-30.6-16.9l35.2-14.5c7.2,1.6,24.3,5.9,30.6,16.9c0.9,1.6,2.6,2.5,4.1,2.5
							C346.6,382.2,347.2,382.1,347.7,381.9z"/>
					</defs>
					<clipPath id="SVGID_1_">
						<use xlink:href="#SVGID_65_"  style="overflow:visible;"/>
					</clipPath>
					<g class="st1">
						<path class="st2" d="M347.7,381.9l-35.2,14.5c-0.5,0.2-1,0.3-1.5,0.3c-1.6,0-3.2-0.9-4.1-2.5c-6.4-10.9-23.4-15.3-30.6-16.9
							l35.2-14.5c7.2,1.6,24.3,5.9,30.6,16.9c0.9,1.6,2.6,2.5,4.1,2.5C346.6,382.2,347.2,382.1,347.7,381.9"/>
					</g>
				</g>
				<g class="st0">
					<defs>
						<path id="SVGID_67_" class="st0" d="M296.8,369.8l-35.2,14.5c-18.3,7.5-38.4,11.7-59.6,11.7c-93,0-172.3-79.5-177-177.6
							C21.3,142.5,62.9,78,125,52.5L160.2,38C98.2,63.5,56.5,128,60.2,203.9c4.7,98.1,84,177.6,177,177.6
							C258.4,381.4,278.4,377.3,296.8,369.8z"/>
					</defs>
					<clipPath id="SVGID_2_">
						<use xlink:href="#SVGID_67_"  style="overflow:visible;"/>
					</clipPath>
					<g class="st3">
						<path class="st2" d="M296.8,369.8l-35.2,14.5c-18.3,7.5-38.4,11.7-59.6,11.7c-93,0-172.3-79.5-177-177.6
							C21.3,142.5,62.9,78,125,52.5L160.2,38C98.2,63.5,56.5,128,60.2,203.9c4.7,98.1,84,177.6,177,177.6
							C258.4,381.4,278.4,377.3,296.8,369.8"/>
					</g>
				</g>
				<g>
					<path class="st4" d="M220.1,26.3c93.1,0,172.3,79.5,177,177.5c2.6,53.7-17.7,101.8-51.9,134.3c3.6,4.2,6.3,9.2,7.7,14.6
						c2.5,9.3,1.1,19.3-3.4,27.3c-0.8,1.4-2.1,2.1-3.5,2.1c-1.6,0-3.2-0.9-4.1-2.5c-6.4-10.9-23.4-15.3-30.6-16.9
						c-22,11.9-47.2,18.6-74.2,18.6c-93,0-172.3-79.5-177-177.6C55.4,105.5,126.8,26.3,220.1,26.3z"/>
				</g>
			</g>
		</g>
		<path class="st5" d="M229.9,309.3c-0.5,0-1.1,0-1.5,0c-0.3,0-0.6,0-1,0c-11.5,0-19.2-5.5-26-10.4c-4.9-3.5-9.5-6.8-14.8-7.7
			c-2.6-0.4-5.3-0.7-7.8-0.7c-4.6,0-8.2,0.7-10.8,1.2c-1.6,0.3-3,0.6-4.1,0.6c-1.1,0-2.5-0.3-3.1-2.3c-0.5-1.6-0.8-3.1-1.1-4.6
			c-0.8-3.7-1.4-5.9-2.7-6.1c-14.4-2.3-23-5.6-24.7-9.7c-0.2-0.4-0.3-0.9-0.3-1.3c-0.1-1.2,0.8-2.3,1.9-2.5
			c11.5-1.9,21.7-8.1,30.3-18.3c6.7-7.9,10-15.5,10.3-16.4c0,0,0-0.1,0.1-0.1c1.7-3.4,2-6.4,1-8.8c-1.9-4.5-8-6.5-12.1-7.8
			c-1-0.3-2-0.6-2.7-0.9c-3.6-1.5-9.6-4.5-8.8-8.8c0.6-3.1,4.6-5.2,7.8-5.2c0.9,0,1.7,0.2,2.4,0.5c3.7,1.7,7,2.6,9.8,2.6
			c3.5,0,5.2-1.4,5.6-1.8c-0.1-1.9-0.2-3.9-0.3-5.9c0,0,0,0,0,0c-0.8-13.4-1.9-30.1,2.3-39.7c12.6-28.6,39.2-30.9,47-30.9
			c0.2,0,3.4,0,3.4,0c0.1,0,0.3,0,0.5,0c7.9,0,34.6,2.2,47.1,30.9c4.2,9.6,3.2,26.3,2.3,39.7l0,0.6c-0.1,1.8-0.2,3.5-0.3,5.2
			c0.4,0.4,1.9,1.6,5.1,1.7c2.7-0.1,5.8-1,9.2-2.6c1.1-0.5,2.2-0.6,3-0.6c1.2,0,2.4,0.2,3.4,0.7l0.1,0c2.9,1,4.8,3.1,4.8,5.3
			c0,2.1-1.5,5.1-8.8,8.1c-0.8,0.3-1.7,0.6-2.7,0.9c-4.1,1.3-10.2,3.3-12.1,7.8c-1,2.4-0.7,5.4,1,8.8c0,0,0,0.1,0.1,0.1
			c0.5,1.2,12.9,30,40.7,34.7c1.2,0.2,2,1.3,1.9,2.5c0,0.4-0.1,0.9-0.3,1.3c-1.7,4-10.2,7.4-24.7,9.6c-1.4,0.2-1.9,2.4-2.7,6.1
			c-0.3,1.5-0.7,3-1.1,4.5c-0.4,1.5-1.4,2.2-2.9,2.2h-0.2c-1,0-2.4-0.2-4.1-0.5c-3.1-0.6-6.5-1.2-10.8-1.2c-2.5,0-5.2,0.2-7.8,0.7
			c-5.4,0.9-10,4.2-14.8,7.7C249.1,303.8,241.4,309.3,229.9,309.3"/>
	</g>
</g>
</svg>
