<?xml version="1.0" encoding="utf-8"?>
<!-- Generator: Adobe Illustrator 25.2.3, SVG Export Plug-In . SVG Version: 6.00 Build 0)  -->
<svg version="1.1" xmlns="http://www.w3.org/2000/svg" xmlns:xlink="http://www.w3.org/1999/xlink" x="0px" y="0px"
	 viewBox="0 0 419.6 422" style="enable-background:new 0 0 419.6 422;" xml:space="preserve">
<style type="text/css">
	.st0{clip-path:url(#SVGID_4_);enable-background:new    ;}
	.st1{fill:#9C2646;}
	.st2{fill:url(#SVGID_7_);}
	.st3{fill:url(#SVGID_8_);}
	.st4{fill:#FFFFFF;}
</style>
<g id="Background">
</g>
<g id="Object">
	<g>
		<g>
			<g>
				<g>
					<defs>
						<path id="SVGID_1_" d="M348.3,381.8l-35.4,14.5c-6.5-0.6-6.7-0.9-7-1.3c-6.4-11-23.5-15.4-30.8-17l35.4-14.5
							c7.3,1.6,24.4,6,30.8,17C341.6,380.8,341.9,381.2,348.3,381.8z"/>
					</defs>
					<clipPath id="SVGID_2_">
						<use xlink:href="#SVGID_1_"  style="overflow:visible;"/>
					</clipPath>
				</g>
				<g>
					<defs>
						<path id="SVGID_3_" d="M348.3,381.8l-35.4,14.5c-6.5-0.6-6.7-0.9-7-1.3c-6.4-11-23.5-15.4-30.8-17l35.4-14.5
							c7.3,1.6,24.4,6,30.8,17C341.6,380.8,341.9,381.2,348.3,381.8z"/>
					</defs>
					<use xlink:href="#SVGID_3_"  style="overflow:visible;fill:#9C2646;"/>
					<clipPath id="SVGID_4_">
						<use xlink:href="#SVGID_3_"  style="overflow:visible;"/>
					</clipPath>
					<g class="st0">
						<path class="st1" d="M348.3,381.8l-35.4,14.5c-6.5-0.6-6.7-0.9-7-1.3c-6.4-11-23.5-15.4-30.8-17l35.4-14.5
							c7.3,1.6,24.4,6,30.8,17C341.6,380.8,341.9,381.2,348.3,381.8"/>
					</g>
				</g>
				<g>
					<defs>
						<path id="SVGID_5_" d="M348.3,381.8l-35.4,14.5c-6.5-0.6-6.7-0.9-7-1.3c-6.4-11-23.5-15.4-30.8-17l35.4-14.5
							c7.3,1.6,24.4,6,30.8,17C341.6,380.8,341.9,381.2,348.3,381.8z"/>
					</defs>
					<clipPath id="SVGID_6_">
						<use xlink:href="#SVGID_5_"  style="overflow:visible;"/>
					</clipPath>
				</g>
			</g>
			<linearGradient id="SVGID_7_" gradientUnits="userSpaceOnUse" x1="-15.7848" y1="170.9008" x2="431.8903" y2="281.8236">
				<stop  offset="0" style="stop-color:#02DDE8"/>
				<stop  offset="2.152419e-02" style="stop-color:#0BD4E1"/>
				<stop  offset="0.1715" style="stop-color:#449DB4"/>
				<stop  offset="0.3216" style="stop-color:#766D8D"/>
				<stop  offset="0.4687" style="stop-color:#9E466D"/>
				<stop  offset="0.612" style="stop-color:#BD2754"/>
				<stop  offset="0.7506" style="stop-color:#D41242"/>
				<stop  offset="0.8823" style="stop-color:#E10438"/>
				<stop  offset="1" style="stop-color:#E60034"/>
			</linearGradient>
			<path class="st2" d="M295.9,370.4l-35.4,14.5c-18.4,7.6-38.6,11.7-59.9,11.7c-93.5,0-173.1-79.9-177.8-178.4
				C19.1,142,61,77.2,123.3,51.6l35.4-14.5C96.4,62.7,54.5,127.5,58.2,203.7c4.7,98.5,84.4,178.4,177.8,178.4
				C257.3,382.1,277.5,377.9,295.9,370.4z"/>
			<linearGradient id="SVGID_8_" gradientUnits="userSpaceOnUse" x1="61.2306" y1="92.8059" x2="425.8636" y2="336.0493">
				<stop  offset="0" style="stop-color:#02DDE8"/>
				<stop  offset="7.576329e-02" style="stop-color:#24BFD0"/>
				<stop  offset="0.2173" style="stop-color:#5D8DA7"/>
				<stop  offset="0.3591" style="stop-color:#8F6284"/>
				<stop  offset="0.498" style="stop-color:#B73F67"/>
				<stop  offset="0.6334" style="stop-color:#D62351"/>
				<stop  offset="0.7644" style="stop-color:#ED1041"/>
				<stop  offset="0.8888" style="stop-color:#FA0437"/>
				<stop  offset="1" style="stop-color:#FF0034"/>
			</linearGradient>
			<path class="st3" d="M218.9,25.3c93.5,0,173.1,79.9,177.8,178.4c2.6,53.9-17.8,102.3-52.1,135c3.6,4.2,6.3,9.3,7.8,14.7
				c2.5,9.3,1.1,19.4-3.4,27.5c-0.2,0.4-0.4,0.7-0.7,0.9c-6.5-0.6-6.7-0.9-7-1.3c-6.4-11-23.5-15.4-30.8-17
				c-22.1,11.9-47.4,18.7-74.5,18.7c-93.5,0-173.1-79.9-177.8-178.4C53.5,104.9,125.1,25.3,218.9,25.3z"/>
			<g>
				<g>
					<path class="st4" d="M202.9,300.4c-2.4-0.5-4.9-0.6-7.3-1.1c-9.6-1.9-18-6.2-25.5-12.4c-8.7-7.1-15-16.1-19.1-26.5
						c-2.4-6.1-3.7-12.4-4.2-19c-0.6-8.2,0.4-16.1,2.9-23.9c2.5-7.7,6.4-14.5,11.9-20.5c9.1-10,20.3-15.8,33.7-17.3
						c4.1-0.5,8.1-0.4,12.2,0c1,0.1,1.2,0.6,1.3,1.5c0.2,5.7,0.5,11.3,0.7,17c0.2,3.9,0.5,7.7,0.7,11.6c0.1,1.9,0,2.1-1.9,1.6
						c-12.7-2.8-24.7,4.4-29.2,15.3c-4.7,11.4-2.8,21.9,4.8,31.5c5.1,6.5,12,10,20.2,10.6c6.1,0.5,11.7-1.3,16.6-4.9
						c5-3.7,8.4-8.7,10-14.8c0.5-1.7,0.4-3.3,0.3-5c-0.3-4.8-0.5-9.6-0.7-14.5c-0.2-5.6-0.6-11.1-0.9-16.7c-0.1-1.9-0.1-3.7-0.2-5.6
						c-0.3-4.3-0.3-8.5-0.5-12.8c-0.4-6.6-0.7-13.3-1-20c-0.2-5-0.5-10-0.7-15.1c-0.2-5-0.5-10-0.7-14.9c-0.2-4.9-0.5-9.9-0.7-14.8
						c-0.3-5.1-0.5-10.1-0.7-15.2c-0.1-2.4,0-4.9-0.4-7.3c-0.2-1,0.3-1.4,1.3-1.4c9.3,0,18.7,0,28,0c1.1,0,1.5,0.4,1.6,1.5
						c0.3,11.6,4.3,21.9,11.8,30.7c6.3,7.4,14.2,12.4,23.7,14.8c3.5,0.9,7.1,1.3,10.8,1.2c1.6,0,1.8,0.2,1.9,1.8
						c0.1,1.6,0.1,3.3,0.2,4.9c0.3,5.9,0.4,11.8,0.8,17.7c0.1,2.1,0,4.2,0.3,6.2c0.1,0.9-0.2,1.3-1.1,1.3
						c-10.7,0.3-20.9-1.8-30.6-6.1c-4.6-2-8.9-4.6-13-7.4c-0.4-0.3-0.8-0.7-1.3-0.5c-0.5,0.2-0.3,0.9-0.3,1.3
						c0.2,4.3,0.4,8.7,0.7,13c0.1,1.8,0.1,3.6,0.2,5.4c0.3,4.3,0.3,8.5,0.5,12.8c0.3,5.6,0.6,11.1,0.9,16.7
						c0.2,4.1,0.3,8.2,0.5,12.3c0.1,3.3,0.5,6.7,0.4,10c-0.2,13.3-4.1,25.5-12.4,36c-7.8,10-17.8,16.4-30.1,19.3
						c-2.4,0.6-4.9,1.1-7.4,1.1c-0.3,0-0.5,0.1-0.8,0.2C208.2,300.4,205.5,300.4,202.9,300.4z"/>
				</g>
			</g>
		</g>
	</g>
</g>
</svg>
