<?xml version="1.0" encoding="utf-8"?>
<!-- Generator: Adobe Illustrator 25.2.3, SVG Export Plug-In . SVG Version: 6.00 Build 0)  -->
<svg version="1.1" xmlns="http://www.w3.org/2000/svg" xmlns:xlink="http://www.w3.org/1999/xlink" x="0px" y="0px"
	 viewBox="0 0 419.6 422" style="enable-background:new 0 0 419.6 422;" xml:space="preserve">
<style type="text/css">
	.st0{enable-background:new    ;}
	.st1{clip-path:url(#SVGID_2_);enable-background:new    ;}
	.st2{fill:#0B7BA9;}
	.st3{clip-path:url(#SVGID_4_);enable-background:new    ;}
	.st4{fill:#10AAE9;}
	.st5{fill:#FFFFFF;}
</style>
<g id="Background">
</g>
<g id="Object">
	<g>
		<g>
			<g>
				<g class="st0">
					<g class="st0">
						<defs>
							<path id="SVGID_1_" class="st0" d="M347,382.2l-35.4,14.5c-0.5,0.2-1,0.3-1.5,0.3c-1.6,0-3.2-0.9-4.1-2.5
								c-6.4-11-23.5-15.4-30.8-17l35.4-14.5c7.3,1.6,24.4,6,30.8,17c1,1.6,2.6,2.5,4.1,2.5C346,382.5,346.6,382.4,347,382.2z"/>
						</defs>
						<clipPath id="SVGID_2_">
							<use xlink:href="#SVGID_1_"  style="overflow:visible;"/>
						</clipPath>
						<g class="st1">
							<path class="st2" d="M347,382.2l-35.4,14.5c-0.5,0.2-1,0.3-1.5,0.3c-1.6,0-3.2-0.9-4.1-2.5c-6.4-11-23.5-15.4-30.8-17
								l35.4-14.5c7.3,1.6,24.4,6,30.8,17c1,1.6,2.6,2.5,4.1,2.5C346,382.5,346.6,382.4,347,382.2"/>
						</g>
					</g>
					<g class="st0">
						<defs>
							<path id="SVGID_3_" class="st0" d="M295.9,370l-35.4,14.5c-18.4,7.6-38.6,11.7-59.8,11.7c-93.5,0-173.1-79.9-177.8-178.4
								C19.1,141.6,61,76.8,123.3,51.2l35.4-14.5C96.4,62.3,54.5,127.1,58.2,203.3c4.7,98.5,84.4,178.4,177.8,178.4
								C257.3,381.7,277.5,377.5,295.9,370z"/>
						</defs>
						<clipPath id="SVGID_4_">
							<use xlink:href="#SVGID_3_"  style="overflow:visible;"/>
						</clipPath>
						<g class="st3">
							<path class="st2" d="M295.9,370l-35.4,14.5c-18.4,7.6-38.6,11.7-59.8,11.7c-93.5,0-173.1-79.9-177.8-178.4
								C19.1,141.6,61,76.8,123.3,51.2l35.4-14.5C96.4,62.3,54.5,127.1,58.2,203.3c4.7,98.5,84.4,178.4,177.8,178.4
								C257.3,381.7,277.5,377.5,295.9,370"/>
						</g>
					</g>
					<g>
						<path class="st4" d="M218.9,24.9c93.5,0,173.1,79.9,177.8,178.4c2.6,53.9-17.8,102.3-52.1,135c3.6,4.2,6.3,9.3,7.8,14.7
							c2.5,9.3,1.1,19.4-3.4,27.4c-0.8,1.4-2.1,2.1-3.5,2.1c-1.6,0-3.2-0.9-4.1-2.5c-6.4-11-23.5-15.4-30.8-17
							c-22.1,11.9-47.4,18.7-74.5,18.7c-93.5,0-173.1-79.9-177.8-178.4C53.5,104.5,125.1,24.9,218.9,24.9z"/>
					</g>
				</g>
			</g>
			<g>
				<g>
					<path class="st5" d="M199.4,298.7c-3.5,0-7,0-10.5,0c-1.8-0.2-3.6-0.3-5.5-0.5c-9.6-1.1-19-3.2-28.1-6.5
						c-9-3.3-17.7-7.4-25.7-12.7c-0.3-0.2-1-0.4-0.8-0.9c0.2-0.4,0.7-0.1,1.1-0.1c4.1,0.2,8.1,0.6,12.2,0.4
						c8.1-0.5,15.8-1.9,23.4-4.8c7.5-2.8,14.3-6.8,20.3-12c0.4-0.3,1-0.6,0.9-1.2c-0.2-0.6-0.9-0.4-1.3-0.5
						c-2.6-0.3-5.2-0.6-7.7-1.4c-14.2-4.3-23.3-14.1-29.4-27.2c-0.6-1.2-0.3-1.5,1-1.2c4.7,1.2,9.3,0.6,13.8-0.6
						c0.6-0.2,1.6-0.1,1.6-0.9c0-0.6-1-0.7-1.6-0.9c-10.5-3.8-19.2-9.9-25.2-19.5c-3.9-6.4-6.1-13.3-6.4-20.8
						c-0.1-1.7,0.2-1.8,1.7-1c2.9,1.6,5.9,2.8,9.1,3.5c1.8,0.4,3.6,0.5,5.5,0.6c0.4,0,0.9,0,1.1-0.4c0.2-0.4-0.3-0.7-0.5-1
						c-0.6-0.6-1.3-1.2-2-1.7c-5.2-4.7-9.5-10.1-12.4-16.4c-4.4-9.4-5-19.1-2.6-29.1c0.6-2.7,1.6-5.4,2.8-7.9c0.4-0.9,0.9-1,1.6-0.3
						c0.2,0.2,0.4,0.4,0.6,0.6c4.6,5.3,9.6,10,15,14.4c18.6,15.2,39.8,24.5,63.6,28c1.9,0.3,3.9,0.6,5.8,0.6c1,0,1.4-0.5,1.2-1.4
						c-0.1-0.5-0.2-0.9-0.2-1.4c-1-5.4-1.2-10.9-0.2-16.3c2.4-13.4,9.3-23.6,21.4-29.9c9-4.7,18.6-5.3,28.4-2.7
						c7.3,2,13.6,5.8,19,11.2c1.2,1.2,2.5,1.6,4.1,1.1c1.8-0.6,3.7-1,5.5-1.6c5.5-1.7,10.7-4.1,15.5-7.2c0.3-0.2,0.6-0.5,1-0.3
						c0.4,0.3,0.1,0.7,0.1,1c-0.1,0.3-0.2,0.5-0.3,0.8c-1.7,4.8-4.2,9.1-7.3,13.1c-2,2.5-4.2,4.8-6.7,6.9c-0.4,0.3-1.1,0.7-0.9,1.3
						c0.3,0.5,1,0.2,1.6,0.1c2.8-0.6,5.6-1.2,8.4-1.9c3.5-0.9,6.9-1.9,10.1-3.8c0.2-0.1,0.5-0.4,0.8-0.1c0.3,0.3,0,0.6-0.2,0.8
						c-2,3.3-4.3,6.5-6.7,9.5c-2.9,3.7-6,7.3-9.8,10.1c-0.9,0.7-1,1.5-1,2.5c0.2,4.9,0.3,9.7,0.1,14.6c-0.3,5.6-0.8,11.1-1.7,16.7
						c-1.4,8.6-3.6,17-6.6,25.2c-5.2,14-12.8,26.6-23.1,37.5c-8.8,9.2-18.7,17-29.9,23.1c-11.5,6.3-23.8,10.4-36.8,11.9
						C204,298.3,201.7,298.5,199.4,298.7z"/>
				</g>
			</g>
		</g>
	</g>
</g>
</svg>
