<?xml version="1.0" encoding="utf-8"?>
<!-- Generator: Adobe Illustrator 25.2.3, SVG Export Plug-In . SVG Version: 6.00 Build 0)  -->
<svg version="1.1" xmlns="http://www.w3.org/2000/svg" xmlns:xlink="http://www.w3.org/1999/xlink" x="0px" y="0px"
	 viewBox="0 0 419.6 422" style="enable-background:new 0 0 419.6 422;" xml:space="preserve">
<style type="text/css">
	.st0{enable-background:new    ;}
	.st1{clip-path:url(#SVGID_2_);enable-background:new    ;}
	.st2{fill:#008F25;}
	.st3{clip-path:url(#SVGID_4_);enable-background:new    ;}
	.st4{fill:#00C633;}
	.st5{fill:#FFFFFF;}
</style>
<g id="Background">
</g>
<g id="Object">
	<g>
		<g>
			<g>
				<g class="st0">
					<g class="st0">
						<defs>
							<path id="SVGID_1_" class="st0" d="M347,382.2l-35.4,14.5c-0.5,0.2-1,0.3-1.6,0.3c-1.6,0-3.2-0.9-4.1-2.5
								c-6.4-11-23.5-15.4-30.8-17l35.4-14.5c7.3,1.6,24.4,6,30.8,17c1,1.6,2.6,2.5,4.1,2.5C346,382.5,346.6,382.4,347,382.2z"/>
						</defs>
						<clipPath id="SVGID_2_">
							<use xlink:href="#SVGID_1_"  style="overflow:visible;"/>
						</clipPath>
						<g class="st1">
							<path class="st2" d="M347,382.2l-35.4,14.5c-0.5,0.2-1,0.3-1.6,0.3c-1.6,0-3.2-0.9-4.1-2.5c-6.4-11-23.5-15.4-30.8-17
								l35.4-14.5c7.3,1.6,24.4,6,30.8,17c1,1.6,2.6,2.5,4.1,2.5C346,382.5,346.6,382.4,347,382.2"/>
						</g>
					</g>
					<g class="st0">
						<defs>
							<path id="SVGID_3_" class="st0" d="M295.9,370l-35.4,14.5c-18.4,7.6-38.6,11.7-59.9,11.7c-93.5,0-173.1-79.9-177.8-178.4
								C19.1,141.6,61,76.8,123.3,51.2l35.4-14.5C96.4,62.3,54.5,127.1,58.2,203.3c4.7,98.5,84.4,178.4,177.8,178.4
								C257.3,381.7,277.5,377.5,295.9,370z"/>
						</defs>
						<clipPath id="SVGID_4_">
							<use xlink:href="#SVGID_3_"  style="overflow:visible;"/>
						</clipPath>
						<g class="st3">
							<path class="st2" d="M295.9,370l-35.4,14.5c-18.4,7.6-38.6,11.7-59.9,11.7c-93.5,0-173.1-79.9-177.8-178.4
								C19.1,141.6,61,76.8,123.3,51.2l35.4-14.5C96.4,62.3,54.5,127.1,58.2,203.3c4.7,98.5,84.4,178.4,177.8,178.4
								C257.3,381.7,277.5,377.5,295.9,370"/>
						</g>
					</g>
					<g>
						<path class="st4" d="M218.9,24.9c93.5,0,173.1,79.9,177.8,178.4c2.6,53.9-17.8,102.3-52.1,135c3.6,4.2,6.3,9.3,7.8,14.7
							c2.5,9.3,1.1,19.4-3.4,27.4c-0.8,1.4-2.2,2.1-3.5,2.1c-1.6,0-3.2-0.9-4.1-2.5c-6.4-11-23.5-15.4-30.8-17
							c-22.1,11.9-47.4,18.7-74.5,18.7c-93.5,0-173.1-79.9-177.8-178.4C53.5,104.5,125.1,24.9,218.9,24.9z"/>
					</g>
				</g>
			</g>
			<g>
				<g>
					<path class="st5" d="M236.8,299.9c-13.6,0-26.5-2.8-38.9-8.5c-1.4-0.7-2.8-0.9-4.4-0.5c-7.9,2-15.9,3.9-23.9,5.8
						c-7.6,1.8-15.3,3.7-22.9,5.5c-1.7,0.4-1.8,0.4-1.6-1.3c0.5-6.3,1.1-12.6,1.6-18.9c0.5-5.9,1-11.8,1.5-17.8c0.4-5,0.9-10,1.4-15
						c0.2-1.9-0.1-3.6-1-5.3c-5.9-11.3-9.5-23.2-11.2-35.8c-0.9-6.5-1.1-13.1-0.7-19.6c1.2-20.1,7.6-38.4,19.9-54.5
						c6.1-7.9,13.3-14.7,21.6-20.2c11.4-7.6,23.8-12.2,37.4-14c4.7-0.6,9.4-0.9,14.1-0.7c9.5,0.3,18.9,1.9,27.9,5.1
						c12.4,4.3,23.4,10.9,33.3,19.5c9.1,8,16.7,17.4,22.7,27.9c6.8,11.9,11,24.6,12.9,38.1c0.9,6.4,1.3,12.9,1,19.3
						c-0.7,15.9-4.7,31-12.6,44.9c-4.9,8.6-10.9,16.2-18.1,22.9c-8,7.4-17.1,13-27.2,17.1c-7.8,3.1-15.9,4.9-24.3,5.8
						C242.5,299.9,239.6,300.1,236.8,299.9z M237.2,281.5c2.1,0.1,5.3-0.2,8.6-0.6c9.3-1.3,18.1-4.2,26.2-8.9
						c10.9-6.2,19.5-14.7,26.1-25.4c7.4-11.9,11.1-24.9,11.9-38.9c0.4-6.5-0.1-13-1.3-19.4c-1.7-9.2-4.7-18-9.2-26.2
						c-8.1-15.1-19.6-27-34.8-35.1c-13.8-7.4-28.5-10.6-44.1-9c-8.8,0.9-17.1,3.4-24.9,7.3c-8,4-15,9.5-21.1,16.1
						c-7.3,8-12.6,17.1-16,27.3c-3.5,10.4-4.9,21-4.2,32c0.5,7.7,1.9,15.1,4.3,22.4c1.7,5.1,3.9,10.1,6.5,14.8
						c0.3,0.6,0.8,1.2,0.7,2c-0.2,3-0.5,6-0.8,9.1c-0.4,4.1-0.7,8.2-1.1,12.3c-0.3,3.3-0.6,6.6-0.9,9.9c-0.3,3-0.6,6-0.8,8.9
						c-0.1,1.4,0.2,1.6,1.6,1.3c0.2,0,0.3-0.1,0.5-0.1c11.2-2.7,22.4-5.3,33.7-8.1c1.6-0.4,3-0.2,4.4,0.5
						C213.1,278.7,224.2,281.4,237.2,281.5z"/>
					<path class="st5" d="M256.6,250.1c-2.9,0.2-6.1-0.7-9.2-2.1c-7.8-3.6-15.3-7.7-22.6-12.4c-8.4-5.4-15.6-12.2-21.8-20.1
						c-7-8.9-13.2-18.4-18.4-28.6c-3.9-7.8-3.6-15.6-0.9-23.6c1.4-4.3,3.8-8.1,7.6-10.8c2.9-2.2,6.1-3.5,9.8-2.6
						c2.6,0.7,4.4,2.5,6,4.5c2.7,3.4,4.4,7.3,5.8,11.3c1.2,3.4,2.2,6.9,3.1,10.4c0.4,1.6,0.2,2.9-0.7,4.2c-1.7,2.5-3.8,4.7-5.9,6.9
						c-2.5,2.6-2.6,2.9-0.8,6.1c3.8,6.6,8.9,12.2,14.5,17.4c4.2,3.9,8.6,7.4,13.5,10.3c1.5,0.9,3.1,1.7,4.7,2.3
						c1.8,0.7,1.9,0.7,3.2-0.9c1.8-2.2,3.7-4.4,5.7-6.4c1.8-1.8,3.7-2.4,6.4-1.8c5.4,1.4,10.7,2.8,15.7,5.4c2.9,1.5,5.4,3.4,7.4,6
						c2,2.8,2.1,5.9,1.2,9c-1.3,4.7-4.2,8.2-8.2,10.8C268.1,248.6,262.9,250.1,256.6,250.1z"/>
				</g>
			</g>
		</g>
	</g>
</g>
</svg>
