<?xml version="1.0" encoding="utf-8"?>
<!-- Generator: Adobe Illustrator 25.2.3, SVG Export Plug-In . SVG Version: 6.00 Build 0)  -->
<svg version="1.1" xmlns="http://www.w3.org/2000/svg" xmlns:xlink="http://www.w3.org/1999/xlink" x="0px" y="0px"
	 viewBox="0 0 419.6 422" style="enable-background:new 0 0 419.6 422;" xml:space="preserve">
<style type="text/css">
	.st0{enable-background:new    ;}
	.st1{clip-path:url(#SVGID_2_);enable-background:new    ;}
	.st2{fill:#A71419;}
	.st3{clip-path:url(#SVGID_4_);enable-background:new    ;}
	.st4{fill:#E61B23;}
	.st5{fill:#FFFFFF;}
</style>
<g id="Background">
</g>
<g id="Object">
	<g>
		<g>
			<g>
				<g class="st0">
					<g class="st0">
						<defs>
							<path id="SVGID_1_" class="st0" d="M347,382.2l-35.4,14.5c-0.5,0.2-1,0.3-1.5,0.3c-1.6,0-3.2-0.9-4.1-2.5
								c-6.4-11-23.5-15.4-30.8-17l35.4-14.5c7.3,1.6,24.4,6,30.8,17c1,1.6,2.6,2.5,4.1,2.5C346,382.5,346.6,382.4,347,382.2z"/>
						</defs>
						<clipPath id="SVGID_2_">
							<use xlink:href="#SVGID_1_"  style="overflow:visible;"/>
						</clipPath>
						<g class="st1">
							<path class="st2" d="M347,382.2l-35.4,14.5c-0.5,0.2-1,0.3-1.5,0.3c-1.6,0-3.2-0.9-4.1-2.5c-6.4-11-23.5-15.4-30.8-17
								l35.4-14.5c7.3,1.6,24.4,6,30.8,17c1,1.6,2.6,2.5,4.1,2.5C346,382.5,346.6,382.4,347,382.2"/>
						</g>
					</g>
					<g class="st0">
						<defs>
							<path id="SVGID_3_" class="st0" d="M295.9,370l-35.4,14.5c-18.4,7.6-38.6,11.7-59.8,11.7c-93.5,0-173.1-79.9-177.8-178.4
								C19.1,141.6,61,76.8,123.3,51.2l35.4-14.5C96.4,62.3,54.5,127.1,58.2,203.3c4.7,98.5,84.4,178.4,177.8,178.4
								C257.3,381.7,277.5,377.5,295.9,370z"/>
						</defs>
						<clipPath id="SVGID_4_">
							<use xlink:href="#SVGID_3_"  style="overflow:visible;"/>
						</clipPath>
						<g class="st3">
							<path class="st2" d="M295.9,370l-35.4,14.5c-18.4,7.6-38.6,11.7-59.8,11.7c-93.5,0-173.1-79.9-177.8-178.4
								C19.1,141.6,61,76.8,123.3,51.2l35.4-14.5C96.4,62.3,54.5,127.1,58.2,203.3c4.7,98.5,84.4,178.4,177.8,178.4
								C257.3,381.7,277.5,377.5,295.9,370"/>
						</g>
					</g>
					<g>
						<path class="st4" d="M218.9,24.9c93.5,0,173.1,79.9,177.8,178.4c2.6,53.9-17.8,102.3-52.1,135c3.6,4.2,6.3,9.3,7.8,14.7
							c2.5,9.3,1.1,19.4-3.4,27.4c-0.8,1.4-2.1,2.1-3.5,2.1c-1.6,0-3.2-0.9-4.1-2.5c-6.4-11-23.5-15.4-30.8-17
							c-22.1,11.9-47.4,18.7-74.5,18.7c-93.5,0-173.1-79.9-177.8-178.4C53.5,104.5,125.1,24.9,218.9,24.9z"/>
					</g>
				</g>
			</g>
			<g>
				<g>
					<path class="st5" d="M188.7,282.4c-1.2,0-2.4,0-3.6,0c-0.4-0.2-0.8-0.4-1.3-0.7c-3.4-1.6-5.4-4.3-5.7-8.1
						c-0.2-2.8-0.3-5.6-0.5-8.4c-0.3-6.7-0.6-13.5-1-20.2c-0.3-6.7-0.6-13.5-1-20.2c-0.3-6.8-0.6-13.5-1-20.3
						c-0.3-6.7-0.6-13.4-1-20.1c-0.3-6.7-0.7-13.5-1-20.2c-0.3-6-0.4-12-0.8-18.1c-0.1-2.2-0.1-4.5-0.4-6.7
						c-0.2-2.2-0.3-4.5-0.3-6.7c0.1-4.7,3.8-8.4,8.3-8.2c2.2,0.1,4,1,5.8,2.1c11.2,6.7,22.5,13.3,33.7,19.9
						c15.1,9,30.2,17.9,45.3,26.9c9.3,5.5,18.7,11,28,16.6c3.3,2,6.7,3.9,9.9,6c5.3,3.6,5.4,11.6,0.1,15.1c-2.7,1.8-5.4,3.5-8.2,5.2
						c-6.6,4.1-13.2,8.3-19.8,12.4c-5.9,3.7-11.7,7.4-17.6,11.1c-7.4,4.6-14.7,9.2-22.1,13.9c-5.7,3.6-11.5,7.2-17.2,10.8
						c-6.7,4.2-13.3,8.4-20,12.5C194.9,279,192.1,281.2,188.7,282.4z"/>
				</g>
			</g>
		</g>
	</g>
</g>
</svg>
